<?xml version="1.0" encoding="utf-8"?>
<!-- Generator: Adobe Illustrator 17.1.0, SVG Export Plug-In . SVG Version: 6.00 Build 0)  -->
<!DOCTYPE svg PUBLIC "-//W3C//DTD SVG 1.1//EN" "http://www.w3.org/Graphics/SVG/1.1/DTD/svg11.dtd">
<svg version="1.1" id="Layer_1" xmlns="http://www.w3.org/2000/svg" xmlns:xlink="http://www.w3.org/1999/xlink" x="0px" y="0px"
	 viewBox="0 0 512 512" enable-background="new 0 0 512 512" xml:space="preserve">
<circle fill="#FAAD1C" cx="256" cy="256" r="250"/>
<path fill="#D68928" d="M213.7,390.3l107.2,107.2c86.7-23.3,154.8-91.9,177.2-179L319.4,139.8L303,221l-71,67.3V354L213.7,390.3z"/>
<g>
	<path fill="#FFFFFF" d="M253.1,310.3c0,5.5-3.4,8.3-10.3,8.3H220c-6.1,0-9.1-2.7-9.1-8.3c0-8.8,0.1-16.1,0.2-21.9
		c0.1-5.8,1.3-11.2,3.5-16.1c3-6.3,7-11.6,12-15.7c5-4.1,10.7-8.4,17.4-12.8l13.2-8.7c9.9-6.3,16.9-12.6,21.1-18.8
		c4.1-6.2,6.2-13.8,6.2-22.9v-4.5c0-10.2-2.9-17.8-8.7-22.7c-3.3-2.7-7.2-4.6-11.8-5.6c-4.5-1-10-1.4-16.3-1.4
		c-8.3,0-16.9,1.1-26,3.3c-9.1,2.2-17.6,4.8-25.6,7.8c-6.6,2.5-11,0.6-13.2-5.8l-5.4-17.8c-1.1-3.9-1-6.7,0.2-8.7
		c1.2-1.9,3.4-3.6,6.4-5c8.8-3.9,19.6-7.2,32.2-10.1c12.7-2.9,25.3-4.3,38-4.3c24.8,0,44.5,5.4,59.1,16.3
		c14.6,10.9,21.9,27.8,21.9,50.6v5.4c0,14.9-3.7,27.8-10.9,38.8c-7.3,11-17.6,20.9-30.8,29.7l-12.8,8.7c-4.7,3-9.1,6-13.2,8.9
		c-4.1,2.9-7.7,5.9-10.7,8.9c-2.2,2.5-3.4,5.9-3.5,10.3C253.1,300.7,253.1,305.4,253.1,310.3z M260.5,365.7c0,9.1-2.5,16-7.6,20.7
		c-5.1,4.7-11.8,7-20,7h-1.7c-10.2,0-17.4-2.3-21.7-7c-4.3-4.7-6.4-11.6-6.4-20.7v-2.1c0-9.6,2.7-16.6,8.3-20.9
		c5.5-4.3,12.1-6.4,19.8-6.4h1.7c8.3,0,14.9,2.1,20,6.4c5.1,4.3,7.6,11.2,7.6,20.9V365.7z"/>
</g>
</svg>
