<?xml version="1.0" encoding="utf-8"?>
<!-- Generator: Adobe Illustrator 17.1.0, SVG Export Plug-In . SVG Version: 6.00 Build 0)  -->
<!DOCTYPE svg PUBLIC "-//W3C//DTD SVG 1.1//EN" "http://www.w3.org/Graphics/SVG/1.1/DTD/svg11.dtd">
<svg version="1.1" id="Layer_1" xmlns="http://www.w3.org/2000/svg" xmlns:xlink="http://www.w3.org/1999/xlink" x="0px" y="0px"
	 viewBox="0 0 16 16" enable-background="new 0 0 16 16" xml:space="preserve">
<g>
	<circle fill="#53BBD4" cx="8" cy="8" r="7.8"/>
	<path fill="#2C95AE" d="M3.9,9.4l6.2,6.2c2.7-0.7,4.8-2.8,5.5-5.5l-3.4-3.4L3.9,9.4z"/>
	<g>
		<g>
			<path fill="#FFFFFF" d="M8,1.1C4.2,1.1,1.1,4.2,1.1,8s3.1,6.9,6.9,6.9s6.9-3.1,6.9-6.9S11.8,1.1,8,1.1z M8,14c-3.3,0-6-2.7-6-6
				s2.7-6,6-6s6,2.7,6,6S11.3,14,8,14z M3.9,9.4h8.2V6.6H3.9V9.4z"/>
		</g>
	</g>
</g>
</svg>
