<?xml version="1.0" encoding="utf-8"?>
<!-- Generator: Adobe Illustrator 17.1.0, SVG Export Plug-In . SVG Version: 6.00 Build 0)  -->
<!DOCTYPE svg PUBLIC "-//W3C//DTD SVG 1.1//EN" "http://www.w3.org/Graphics/SVG/1.1/DTD/svg11.dtd">
<svg version="1.1" id="Layer_1" xmlns="http://www.w3.org/2000/svg" xmlns:xlink="http://www.w3.org/1999/xlink" x="0px" y="0px"
	 viewBox="0 0 512 512" enable-background="new 0 0 512 512" xml:space="preserve">
<g>
	<path fill="#57C1B4" d="M256,6c138,0,250,111.9,250,250S394,506,256,506S6,394,6,256S118,6,256,6z"/>
	<polygon display="none" fill="#FFFFFF" points="254.2,135.8 186.8,218 219.9,219.2 219.7,351 285.8,353.2 285.3,221.3 319,222.4 	
		"/>
	<path fill="#2D9B8E" d="M255.5,135.3L195,377.1l123.2,121.1c73.7-18.9,134.3-70.6,165.3-138.7L255.5,135.3z"/>
	<polygon fill="#FFFFFF" points="378.7,271.1 256,135.4 133.3,271.1 194.6,271.1 194.6,376.6 317.4,376.6 317.4,271.1 	"/>
</g>
</svg>
