<?xml version="1.0" standalone="no"?>
<!DOCTYPE svg PUBLIC "-//W3C//DTD SVG 1.1//EN" "http://www.w3.org/Graphics/SVG/1.1/DTD/svg11.dtd" >
<svg xmlns="http://www.w3.org/2000/svg">
<metadata></metadata>
<defs>
<font id="clearviewattitalic" horiz-adv-x="1177" >
<font-face units-per-em="2048" ascent="1536" descent="-512" />
<missing-glyph horiz-adv-x="675" />
<glyph horiz-adv-x="2048" />
<glyph horiz-adv-x="2048" />
<glyph unicode="&#xd;" horiz-adv-x="2048" />
<glyph unicode=" "  horiz-adv-x="675" />
<glyph unicode="&#x09;" horiz-adv-x="675" />
<glyph unicode="&#xa0;" horiz-adv-x="675" />
<glyph unicode="!" horiz-adv-x="575" d="M168 76q0 59 44 95t105 36q48 0 81.5 -24.5t33.5 -69.5q0 -60 -43.5 -98t-103.5 -38q-49 0 -83 25.5t-34 73.5zM268 371q40 341 109 995h207q-110 -617 -170 -995h-146z" />
<glyph unicode="&#x22;" horiz-adv-x="854" d="M301 1014l23 420h200l-102 -420h-121zM686 1014l23 420h200l-102 -420h-121z" />
<glyph unicode="#" horiz-adv-x="1275" d="M150 526l34 133h246l82 295h-246l35 131h248l80 281h143l-80 -281h289l80 281h143l-84 -281h234l-39 -131h-232l-84 -295h242l-37 -133h-243l-82 -295h-146l84 295h-282l-86 -295h-140l84 295h-243zM571 659h287l84 295h-289z" />
<glyph unicode="$" d="M168 188l98 136q172 -127 346 -127q57 0 108.5 12.5t96 38t70.5 71t26 105.5q0 53 -33 95.5t-85.5 71.5t-116.5 55.5t-128 56t-116.5 64.5t-85.5 88.5t-33 121.5q0 154 108.5 248t266.5 102l21 154h172l-21 -154q148 -6 289 -96l-86 -139q-139 100 -307 100 q-50 0 -93.5 -8.5t-83 -28.5t-62.5 -58.5t-23 -92.5q0 -42 33 -76.5t85.5 -60.5t116 -51.5t127 -56.5t116 -68.5t85.5 -95t33 -128.5q0 -171 -118.5 -283t-291.5 -121l-23 -159h-172l23 159q-170 6 -342 125z" />
<glyph unicode="%" horiz-adv-x="1513" d="M240 983q0 67 9.5 128t32.5 121.5t59 104t93 70.5t129 27q228 0 228 -246q0 -86 -16.5 -161t-52 -142t-101.5 -106.5t-156 -39.5q-225 0 -225 244zM252 0l1079 1434h113l-1077 -1434h-115zM365 983q0 -69 25 -107t89 -38q47 0 82.5 26t54.5 63.5t31 88.5t15.5 92t3.5 84 q0 67 -26 104t-91 37q-47 0 -82 -25.5t-54 -61.5t-30.5 -87t-14.5 -91.5t-3 -84.5zM920 233q0 84 16.5 159t51.5 142.5t100.5 107.5t154.5 40q227 0 227 -246q0 -67 -9.5 -128t-32.5 -120.5t-59 -103t-93 -70t-129 -26.5q-227 0 -227 245zM1044 231q0 -69 25.5 -107 t89.5 -38q46 0 81.5 25.5t54.5 63t31.5 88t16 92t3.5 83.5q0 68 -26 106t-91 38q-58 0 -97.5 -36t-57 -95.5t-24 -111t-6.5 -108.5z" />
<glyph unicode="&#x26;" horiz-adv-x="1275" d="M176 311q0 84 26.5 156t76 128t108.5 98.5t137 82.5q-123 161 -123 281q0 102 58 180t146 116t188 38q128 0 204 -64t76 -186q0 -69 -27 -125.5t-88 -106.5t-101 -75.5t-124 -71.5q-7 -4 -10 -6l262 -447q53 101 53 283q0 28 -4 86h162q2 -20 2 -60q0 -114 -29.5 -224.5 t-95.5 -188.5l127 -205h-194l-60 96q-155 -119 -356 -119q-85 0 -157.5 18.5t-131 56.5t-92 104.5t-33.5 154.5zM348 344q0 -114 72 -173.5t188 -59.5q70 0 140.5 24t119.5 68l-288 477q-51 -32 -89 -64t-72.5 -73t-52.5 -91.5t-18 -107.5zM563 1081q0 -40 19 -88t38 -78 t52 -77q54 34 86.5 57t75 62.5t63.5 84t21 95.5q0 65 -36.5 100t-103.5 35q-96 0 -155.5 -52t-59.5 -139z" />
<glyph unicode="'" horiz-adv-x="446" d="M301 1014l23 420h200l-102 -420h-121z" />
<glyph unicode="(" horiz-adv-x="612" d="M172 412q0 299 105 583t313 586l119 -29q-361 -593 -361 -1173q0 -315 107 -631l-127 -31q-78 187 -117 354t-39 341z" />
<glyph unicode=")" horiz-adv-x="612" d="M84 -252q362 593 362 1180q0 314 -108 624l127 29q79 -200 117.5 -362.5t38.5 -331.5q0 -580 -418 -1170z" />
<glyph unicode="*" horiz-adv-x="688" d="M217 1147l70 141l162 -80l-7 187h162l-51 -185l182 80l31 -141l-195 -35l115 -133l-135 -90l-70 168l-116 -166l-111 88l152 137z" />
<glyph unicode="+" d="M168 459l22 155h410l57 408h158l-57 -408h399l-22 -155h-400l-59 -426h-158l60 426h-410z" />
<glyph unicode="," horiz-adv-x="430" d="M20 -244l142 443h215l-234 -443h-123z" />
<glyph unicode="-" horiz-adv-x="770" d="M168 449l25 165h557l-25 -165h-557z" />
<glyph unicode="." horiz-adv-x="430" d="M96 76q0 59 43.5 95t104.5 36q48 0 81 -24.5t33 -69.5q0 -60 -43.5 -98t-103.5 -38q-49 0 -82 25.5t-33 73.5z" />
<glyph unicode="/" horiz-adv-x="1048" d="M6 -236l1047 1670h168l-1049 -1670h-166z" />
<glyph unicode="0" d="M182 434q0 106 21 250q11 83 25 151t37.5 143t53.5 133t74.5 111.5t99 89t129 56.5t162.5 21q111 0 189.5 -31t124 -92.5t66 -142.5t20.5 -189q0 -106 -21 -250q-12 -82 -25.5 -150t-37 -143t-53 -133.5t-73.5 -113t-98.5 -90.5t-128 -57.5t-161.5 -21.5 q-217 0 -310.5 118t-93.5 341zM365 424q0 -69 10.5 -119.5t36.5 -92.5t74.5 -63.5t119.5 -21.5q48 0 89 12t72 30.5t58 49.5t45.5 60.5t35 73t26.5 77.5t19.5 83.5t14.5 81t12 79.5q1 7 1 10q22 154 22 254q0 68 -10.5 119t-36 93.5t-74 64.5t-118.5 22q-216 0 -304 -223 q-39 -98 -68 -308q0 -3 -1 -10l-2 -12q-22 -158 -22 -260z" />
<glyph unicode="1" d="M193 0l20 156h338l141 1009h-8l-332 -184l-55 137l455 252h151l-172 -1214h326l-21 -156h-843z" />
<glyph unicode="2" d="M162 166q68 53 162.5 124t154 115.5t134.5 105t121 103.5t95.5 98.5t76 103t44 104t17.5 114.5q0 40 -10 74t-32 63.5t-63 46.5t-96 17q-176 0 -371 -186l-80 131q127 113 238.5 161t245.5 48q165 0 259.5 -84.5t94.5 -239.5q0 -106 -52.5 -215t-114.5 -187.5 t-187 -182.5t-194 -153t-211 -145q-26 -18 -38 -26h703l-21 -156h-870z" />
<glyph unicode="3" d="M152 117l102 135q143 -127 321 -127q158 0 248 86t90 244q0 48 -15 82t-38 53t-60.5 30t-73 14t-85.5 3h-133l20 149q56 0 99.5 3t97.5 11.5t93.5 27t74.5 47t53.5 74.5t18.5 106q0 50 -18.5 86t-51.5 56t-72.5 29t-87.5 9q-169 0 -340 -129l-61 139q116 74 218 109 t226 35q77 0 142.5 -17t118.5 -51.5t83.5 -95t30.5 -140.5q0 -130 -62.5 -223t-183.5 -135v-8q193 -39 193 -248q0 -158 -71 -271.5t-191 -169t-277 -55.5q-234 0 -409 142z" />
<glyph unicode="4" d="M156 446l729 916h200l-129 -913h187l-21 -156h-186l-41 -293h-184l41 293h-568zM342 449h440l101 706h-9z" />
<glyph unicode="5" d="M158 104l96 142q148 -121 305 -121q186 0 276.5 116t90.5 310q0 235 -250 235q-88 0 -159.5 -31t-143.5 -93l-127 96l190 608h725l-20 -156h-582l-127 -381l6 -6q149 111 305 111q369 0 369 -352q0 -285 -144 -446t-421 -161q-231 0 -389 129z" />
<glyph unicode="6" d="M180 408q0 74 15 192q12 89 27.5 164.5t42 158.5t60 148.5t82.5 127t109.5 102t142 64.5t177.5 24q180 0 319 -93l-96 -139q-111 78 -244 78q-88 0 -158 -31t-114 -79.5t-77.5 -121t-50.5 -140.5t-30 -154h8q125 176 357 176q175 0 279 -91.5t104 -263.5 q0 -156 -67.5 -282.5t-191 -199.5t-280.5 -73q-214 0 -314 108.5t-100 324.5zM356 367q0 -118 69 -179t189 -61q161 0 246.5 107.5t85.5 273.5q0 225 -246 225q-157 0 -250.5 -103.5t-93.5 -262.5z" />
<glyph unicode="7" d="M303 1210l21 156h880l8 -154q-101 -77 -176 -148t-132.5 -149.5t-96.5 -155t-69.5 -177.5t-50.5 -203.5t-40 -245.5l-18 -133h-191l8 61q13 93 25.5 167t35 172t49.5 178.5t69 172.5t92.5 167.5t120.5 150t153 133.5v8h-688z" />
<glyph unicode="8" d="M160 307q0 320 278 420l2 8q-153 63 -153 238q0 108 39 189.5t108 130t156.5 72.5t191.5 24q394 0 394 -287q0 -130 -60 -226t-178 -141l-2 -8q186 -61 186 -264q0 -239 -146.5 -363.5t-389.5 -124.5q-426 0 -426 332zM346 317q0 -47 14 -82.5t36.5 -56.5t57 -34.5 t70 -18t80.5 -4.5q334 0 334 336q0 59 -19.5 99.5t-56.5 61.5t-80.5 30t-101.5 9q-334 0 -334 -340zM467 973q0 -178 231 -178q137 0 216 70t79 206q0 51 -18.5 86t-52.5 52.5t-72 24.5t-88 7q-295 0 -295 -268z" />
<glyph unicode="9" d="M190 98l109 125q62 -53 120.5 -75.5t139.5 -22.5q67 0 123 18t95.5 45.5t72 73t53 89.5t37.5 106t26 110.5t19 114.5h-8q-59 -95 -151 -148t-201 -53q-178 0 -285 95.5t-107 271.5q0 236 153 388.5t388 152.5q111 0 190 -31.5t126 -92.5t68.5 -143.5t21.5 -191.5 q0 -95 -17 -217q-13 -88 -28.5 -161t-41.5 -151t-58.5 -138.5t-80 -115.5t-106 -91t-137.5 -57.5t-172 -21.5q-214 0 -349 121zM420 870q0 -116 66.5 -175.5t183.5 -59.5q156 0 241.5 102.5t85.5 261.5q0 116 -63.5 177t-179.5 61q-153 0 -243.5 -105.5t-90.5 -261.5z" />
<glyph unicode=":" horiz-adv-x="430" d="M100 76q0 59 42.5 95t103.5 36q48 0 80 -23.5t32 -70.5q0 -60 -42.5 -98t-102.5 -38q-48 0 -80.5 26t-32.5 73zM205 811q0 58 42 93.5t101 35.5q48 0 80.5 -23.5t32.5 -70.5q0 -60 -42 -97.5t-104 -37.5q-48 0 -79 26t-31 74z" />
<glyph unicode=";" horiz-adv-x="430" d="M20 -244l140 443h209l-226 -443h-123zM221 807q0 59 42.5 95t103.5 36q48 0 80 -22.5t32 -69.5q0 -60 -42 -98.5t-103 -38.5q-49 0 -81 25.5t-32 72.5z" />
<glyph unicode="&#x3c;" d="M168 457l22 157l1029 441l-23 -162l-846 -356l746 -349l-21 -157z" />
<glyph unicode="=" d="M143 270l23 154h964l-22 -154h-965zM197 653l22 154h965l-23 -154h-964z" />
<glyph unicode="&#x3e;" d="M109 31l20 157l846 349l-746 356l23 162l905 -441l-22 -157z" />
<glyph unicode="?" horiz-adv-x="1054" d="M272 1249q115 71 220 105.5t229 34.5q76 0 141 -16.5t118 -51t83.5 -94.5t30.5 -140q0 -46 -7.5 -87t-18 -73.5t-32 -63.5t-39.5 -52.5t-51.5 -46t-56.5 -39t-66 -35.5t-68 -32.5t-75 -32.5q-68 -29 -85 -51.5t-26 -94.5l-16 -127h-176l22 162q13 96 43.5 134t120.5 77 q19 8 61.5 26t63 27t57 28t55 33.5t43.5 39t37.5 49t21.5 58.5t9 73q0 64 -34.5 105.5t-84.5 57t-114 15.5q-169 0 -336 -121zM297 74q0 59 40.5 94t100.5 35q48 0 80.5 -23.5t32.5 -70.5q0 -58 -41 -95t-100 -37q-48 0 -80.5 25t-32.5 72z" />
<glyph unicode="@" horiz-adv-x="1644" d="M184 348q0 180 67 338.5t181.5 270.5t274.5 176.5t340 64.5q117 0 218 -30.5t178.5 -90t122 -154.5t44.5 -216q0 -74 -17.5 -155t-54.5 -159.5t-88 -141.5t-123.5 -101.5t-155.5 -38.5q-57 0 -95 34t-38 91h-10q-113 -132 -278 -132q-110 0 -167 63.5t-57 174.5 q0 92 31 183.5t85.5 167t137.5 122.5t178 47q120 0 172 -90h9l22 74h150q-4 -13 -23.5 -82t-40.5 -142t-42.5 -152t-35.5 -134.5t-14 -67.5q0 -59 64 -59q41 0 96 37q154 103 192 362q6 43 6 86q0 137 -65 232.5t-170 139.5t-240 44q-161 0 -302 -59t-239.5 -161 t-155 -243.5t-56.5 -302.5q0 -231 136 -354t370 -123q242 0 434 121l39 -76q-206 -131 -500 -131q-270 0 -425 149.5t-155 417.5zM670 358q0 -143 141 -143q91 0 153 58.5t87 150.5q4 13 19.5 64t22.5 86t7 67q0 109 -139 109q-70 0 -128 -37t-92 -95.5t-52.5 -126 t-18.5 -133.5z" />
<glyph unicode="A" horiz-adv-x="1314" d="M45 0l696 1374h209l320 -1374h-201l-72 330h-596l-163 -330h-193zM469 483h500l-148 709h-8z" />
<glyph unicode="B" horiz-adv-x="1302" d="M176 0l191 1358q201 24 434 24q62 0 111 -3.5t107 -13t100 -30t78.5 -51.5t55.5 -80.5t19 -113.5q0 -132 -66 -230.5t-196 -138.5l-2 -8q108 -20 167.5 -92t59.5 -187q0 -208 -133.5 -321t-360.5 -113h-565zM379 143q92 -4 264 -4q50 0 89.5 2.5t83.5 10t77 20.5 t64.5 35.5t51.5 53t32 75t12 100.5q0 41 -11.5 73t-28.5 53.5t-46.5 36t-55.5 22.5t-66.5 12t-68.5 5t-71 1q-174 0 -256 -2zM471 778q78 -2 258 -2q63 0 112 6t97 24t79 48t50.5 81t19.5 120q0 54 -21.5 90t-64.5 55.5t-95 27t-124 7.5q-130 0 -250 -12z" />
<glyph unicode="C" horiz-adv-x="1294" d="M217 520q0 135 28.5 261t88.5 237t145 193t205.5 130t263.5 48q132 0 239 -46.5t202 -142.5l-132 -123q-72 78 -149 116t-176 38q-110 0 -199.5 -41t-148 -108t-97.5 -158t-56 -187t-17 -198q0 -189 86.5 -297.5t271.5 -108.5q204 0 397 164l82 -127q-242 -193 -508 -193 q-259 0 -392.5 141.5t-133.5 401.5z" />
<glyph unicode="D" horiz-adv-x="1370" d="M176 0l191 1358q235 24 415 24q267 0 414 -137.5t147 -402.5q0 -177 -48 -329t-140 -267t-236.5 -180.5t-326.5 -65.5h-416zM383 154q66 -2 197 -2q260 0 391 137t168 405q10 75 10 135q0 194 -95 299t-288 105q-78 0 -234 -12z" />
<glyph unicode="E" horiz-adv-x="1093" d="M176 0l191 1366h815l-23 -158h-629l-57 -407h569l-22 -160h-569l-68 -485h653l-20 -156h-840z" />
<glyph unicode="F" horiz-adv-x="1044" d="M176 0l191 1366h800l-22 -158h-615l-57 -415h555l-22 -160h-555l-89 -633h-186z" />
<glyph unicode="G" horiz-adv-x="1429" d="M217 535q0 128 29.5 251t90.5 232t146.5 191.5t206.5 131t262 48.5q249 0 432 -179l-129 -125q-146 146 -319 146q-111 0 -202 -41.5t-150 -109.5t-99 -160t-57.5 -189.5t-17.5 -200.5q0 -88 18.5 -159t59.5 -128t113.5 -88.5t172.5 -31.5q176 0 282.5 95.5t135.5 262.5 l14 86h-364l22 154h533l-21 -152q-41 -291 -200.5 -440t-430.5 -149q-261 0 -394.5 150.5t-133.5 404.5z" />
<glyph unicode="H" horiz-adv-x="1355" d="M176 0l191 1366h186l-76 -549h631l76 549h186l-190 -1366h-187l90 643h-630l-91 -643h-186z" />
<glyph unicode="I" horiz-adv-x="538" d="M176 0l191 1366h186l-191 -1366h-186z" />
<glyph unicode="J" horiz-adv-x="917" d="M92 78l101 143q50 -48 94.5 -67t103.5 -19q95 0 145.5 51t65.5 162l143 1018h187l-141 -1004q-27 -191 -125.5 -289t-278.5 -98q-175 0 -295 103z" />
<glyph unicode="K" horiz-adv-x="1185" d="M176 0l191 1366h186l-90 -645h8l596 645h233l-548 -580l397 -786h-231l-322 657l-164 -161l-70 -496h-186z" />
<glyph unicode="L" horiz-adv-x="1019" d="M176 0l191 1366h186l-170 -1206h575l-20 -160h-762z" />
<glyph unicode="M" horiz-adv-x="1570" d="M176 0l191 1366h172l342 -676l530 676h174l-190 -1366h-181l148 1061h-8l-514 -655l-328 651h-8l-148 -1057h-180z" />
<glyph unicode="N" horiz-adv-x="1435" d="M176 0l191 1366h184l563 -1051h8l148 1051h180l-190 -1366h-175l-571 1065h-8l-150 -1065h-180z" />
<glyph unicode="O" horiz-adv-x="1527" d="M215 528q0 138 29.5 264.5t91 235.5t148 189t208.5 126t266 46q263 0 403 -142.5t140 -404.5q0 -139 -29 -266t-89.5 -236.5t-147 -190t-208.5 -126.5t-267 -46q-264 0 -404.5 143.5t-140.5 407.5zM412 535q0 -406 368 -406q95 0 175 28.5t136.5 80t99 118.5t67.5 147.5 t37 163t12 169.5q0 401 -371 401q-114 0 -205 -41t-149.5 -109t-97.5 -160.5t-55.5 -189.5t-16.5 -202z" />
<glyph unicode="P" horiz-adv-x="1232" d="M176 0l191 1358q228 24 430 24q106 0 188 -17t147 -55t99.5 -105.5t34.5 -162.5q0 -239 -130.5 -380.5t-379.5 -141.5h-322l-72 -520h-186zM455 670h266q176 0 265 79.5t89 268.5q0 118 -71.5 165.5t-227.5 47.5q-121 0 -244 -14z" />
<glyph unicode="Q" horiz-adv-x="1527" d="M215 524q0 176 46.5 330t136.5 274.5t234 190.5t326 70q264 0 403.5 -137.5t139.5 -401.5q0 -116 -21 -226t-64.5 -214t-118.5 -191t-175 -141v-8q40 -11 109 -60t137 -63l-78 -140q-46 5 -93.5 25t-86 45t-74.5 49.5t-72.5 41t-68.5 16.5q-12 0 -56.5 -3.5t-70.5 -3.5 q-268 0 -410.5 140t-142.5 407zM412 532q0 -401 368 -401q96 0 176.5 28.5t137 80.5t98.5 119t66.5 148t36.5 164t12 171q0 393 -371 393q-115 0 -206.5 -41t-150 -108t-97 -160t-54.5 -190t-16 -204z" />
<glyph unicode="R" horiz-adv-x="1236" d="M176 0l191 1360q199 22 411 22q465 0 465 -323q0 -152 -72.5 -269t-214.5 -161v-8q35 -16 52 -86l129 -535h-197l-111 492q-9 44 -32.5 61.5t-71.5 17.5h-283l-80 -571h-186zM463 721h278q152 0 233 75.5t81 231.5q0 60 -22 101t-63.5 63t-91.5 31.5t-116 9.5 q-115 0 -230 -14z" />
<glyph unicode="S" horiz-adv-x="1103" d="M90 127l107 139q165 -139 358 -139q134 0 221.5 65t87.5 193q0 56 -33.5 101t-87.5 76.5t-119 61t-130 63t-119 73.5t-87.5 101.5t-33.5 139.5q0 82 26.5 147.5t71.5 109.5t107.5 73t132 42t147.5 13q217 0 396 -120l-91 -150q-148 119 -321 119q-73 0 -132.5 -17 t-103 -64t-43.5 -120q0 -54 34 -96.5t88 -72t119 -57t130.5 -60.5t119.5 -73.5t88 -106t34 -148.5q0 -110 -39.5 -196t-109.5 -139t-161.5 -80.5t-199.5 -27.5q-132 0 -241.5 36t-215.5 114z" />
<glyph unicode="T" horiz-adv-x="1034" d="M207 1204l22 162h957l-23 -162h-385l-168 -1204h-186l168 1204h-385z" />
<glyph unicode="U" horiz-adv-x="1370" d="M238 377q0 71 12 153l117 836h186l-117 -836q-10 -72 -10 -122q0 -133 63.5 -204t212.5 -71q94 0 163 28.5t111.5 83.5t67 123.5t37.5 161.5l117 836h186l-116 -836q-40 -285 -180.5 -419t-407.5 -134q-229 0 -335.5 98t-106.5 302z" />
<glyph unicode="V" horiz-adv-x="1179" d="M236 1366h198l182 -1159h9l505 1159h195l-633 -1366h-207z" />
<glyph unicode="W" horiz-adv-x="1875" d="M252 1366h205l96 -1151h10l473 1151h189l149 -1151h8l424 1151h199l-547 -1366h-213l-153 1102h-9l-454 -1102h-228z" />
<glyph unicode="X" horiz-adv-x="1155" d="M35 0l534 709l-293 657h218l206 -516h9l362 516h215l-493 -672l327 -694h-217l-248 551h-8l-397 -551h-215z" />
<glyph unicode="Y" horiz-adv-x="1171" d="M217 1366h211l258 -659l444 659h205l-579 -823l-76 -543h-186l73 537z" />
<glyph unicode="Z" horiz-adv-x="1142" d="M94 0l21 154l868 1050h-690l22 162h906l-21 -152l-870 -1058h739l-20 -156h-955z" />
<glyph unicode="[" horiz-adv-x="634" d="M88 -213l250 1774h379l-17 -115h-215l-217 -1544h215l-16 -115h-379z" />
<glyph unicode="\" horiz-adv-x="1048" d="M236 1366h170l552 -1602h-167z" />
<glyph unicode="]" horiz-adv-x="634" d="M96 -213l17 115h211l217 1544h-211l16 115h373l-250 -1774h-373z" />
<glyph unicode="^" horiz-adv-x="749" d="M170 1169l393 215l336 -215l-111 -94l-245 158l-299 -158z" />
<glyph unicode="_" horiz-adv-x="991" d="M-57 -295l18 121h1022l-18 -121h-1022z" />
<glyph unicode="`" horiz-adv-x="733" d="M317 1380l193 82l242 -243l-109 -62z" />
<glyph unicode="a" horiz-adv-x="1155" d="M170 373q0 92 14.5 182t50.5 182t91 160.5t143 112t199 43.5q98 0 167 -32.5t111 -111.5h8l35 119h154l-144 -1028h-149l10 158h-8q-120 -181 -336 -181q-93 0 -161.5 30t-108 85t-58 124.5t-18.5 156.5zM352 385q0 -274 228 -274q126 0 203.5 83.5t97.5 215.5l34 258 q4 26 4 49q-1 83 -49 133q-62 62 -182 63q-81 0 -143 -34.5t-98 -86.5t-58 -125.5t-29.5 -140.5t-7.5 -141z" />
<glyph unicode="b" horiz-adv-x="1155" d="M156 0l200 1434h179l-76 -531h8q104 150 315 150q95 0 164 -29.5t108 -84t56.5 -122.5t17.5 -153q0 -94 -15.5 -186t-53 -184t-92.5 -161t-141.5 -112.5t-192.5 -43.5q-113 0 -187 47.5t-100 139.5h-8l-49 -164h-133zM385 344q0 -106 55.5 -169.5t165.5 -63.5 q78 0 139 35.5t98.5 91.5t61.5 130.5t33.5 146t9.5 144.5q0 56 -10.5 99t-34.5 79.5t-70 56t-112 19.5q-121 0 -200.5 -62.5t-96.5 -182.5l-35 -258q-4 -23 -4 -66z" />
<glyph unicode="c" horiz-adv-x="1013" d="M170 397q0 104 23.5 201t71.5 179.5t115.5 144t160.5 96.5t202 35q193 0 338 -129l-96 -125q-98 112 -256 112q-78 0 -142 -29.5t-106.5 -78t-71.5 -113.5t-42 -133.5t-13 -140.5q0 -138 64.5 -217.5t199.5 -79.5q159 0 300 110l45 -125q-187 -127 -375 -127 q-199 0 -308.5 110t-109.5 310z" />
<glyph unicode="d" horiz-adv-x="1155" d="M170 373q0 92 14.5 182t50.5 182t91 160.5t143 112t199 43.5q97 0 163.5 -32.5t108.5 -111.5h8l74 525h178l-201 -1434h-149l10 158h-8q-120 -181 -336 -181q-93 0 -161.5 30t-108 85t-58 124.5t-18.5 156.5zM352 385q0 -274 228 -274q126 0 203.5 83.5t97.5 215.5 l34 258q4 26 4 49q-1 83 -49 133q-62 62 -182 63q-81 0 -143 -34.5t-98 -86.5t-58 -125.5t-29.5 -140.5t-7.5 -141z" />
<glyph unicode="e" horiz-adv-x="1112" d="M172 393q0 101 21 196t66 180t109.5 148.5t156.5 100.5t202 37q176 0 270.5 -109.5t94.5 -296.5q0 -77 -21 -192h-721q-6 -43 -6 -80q0 -125 67.5 -193.5t198.5 -68.5q159 0 322 106l45 -123q-186 -121 -391 -121q-204 0 -309 109.5t-105 306.5zM367 578h557q6 44 6 84 q0 117 -53.5 189.5t-165.5 72.5q-81 0 -144.5 -30t-103 -81.5t-63 -109.5t-33.5 -125z" />
<glyph unicode="f" horiz-adv-x="653" d="M178 883l21 145h157l21 152q11 74 28.5 120t53 80.5t93.5 49t148 14.5q53 0 125 -10l-18 -136q-57 11 -96 11q-90 0 -119.5 -27.5t-40.5 -112.5l-21 -141h222l-21 -143h-215l-123 -885h-180l123 883h-158z" />
<glyph unicode="g" horiz-adv-x="1155" d="M125 -358l74 139q168 -105 350 -105q126 0 182 45.5t74 172.5l39 268h-8q-65 -92 -138.5 -131t-173.5 -39q-184 0 -269 104.5t-85 284.5q0 92 14.5 181t50.5 180t91 158.5t143 110t199 42.5q106 0 175.5 -36.5t110.5 -123.5h9l28 135h152l-156 -1116q-10 -71 -28.5 -127 t-41.5 -95t-55.5 -67.5t-65 -44.5t-74.5 -25.5t-79 -12.5t-84 -3q-255 0 -434 105zM354 401q0 -272 226 -272q128 0 205.5 82.5t97.5 214.5l32 240q4 27 4 52q0 83 -48 132q-62 63 -183 63q-78 0 -138.5 -32t-96.5 -82t-59 -119.5t-31.5 -136.5t-8.5 -142z" />
<glyph unicode="h" horiz-adv-x="1155" d="M156 0l200 1434h179l-76 -533h8q108 152 328 152q165 0 234 -69.5t69 -209.5q0 -47 -11 -133l-88 -641h-178l84 602q13 102 13 127q0 86 -42 129t-151 43q-129 0 -206.5 -66t-94.5 -190l-90 -645h-178z" />
<glyph unicode="i" horiz-adv-x="489" d="M156 0l143 1028h178l-143 -1028h-178zM309 1268q0 51 38.5 83.5t90.5 32.5q43 0 71 -20.5t28 -60.5q0 -55 -36 -88t-91 -33q-42 0 -71.5 22.5t-29.5 63.5z" />
<glyph unicode="j" horiz-adv-x="501" d="M-203 -455l23 152q55 -6 110 -6q63 0 105 16t66.5 51t36.5 75.5t20 103.5l153 1091h178l-155 -1108q-26 -187 -121 -285t-279 -98q-77 0 -137 8zM322 1268q0 52 37 84t90 32q43 0 70.5 -21t27.5 -63q0 -54 -36 -86t-91 -32q-40 0 -69 23t-29 63z" />
<glyph unicode="k" horiz-adv-x="1032" d="M156 0l200 1434h179l-127 -895h8l465 489h225l-408 -405l295 -623h-215l-225 506l-174 -174l-45 -332h-178z" />
<glyph unicode="l" horiz-adv-x="557" d="M178 137q0 39 4 62l174 1235h179l-168 -1190q-4 -25 -4 -42t4 -28.5t10 -18t19 -9.5t25 -4t34 -1h63l-18 -141q-55 -10 -140 -10q-96 0 -139 33.5t-43 113.5z" />
<glyph unicode="m" horiz-adv-x="1722" d="M156 0l143 1028h154v-131h8q107 156 299 156q215 0 258 -164q121 164 336 164q164 0 237.5 -74.5t73.5 -218.5q0 -47 -10 -119l-88 -641h-178l86 623q10 65 10 108q0 83 -38 126.5t-132 43.5q-116 0 -186 -58t-87 -175l-92 -668h-178l88 631q8 74 8 100q0 85 -39.5 127.5 t-138.5 42.5q-103 0 -176.5 -69t-87.5 -170l-92 -662h-178z" />
<glyph unicode="n" horiz-adv-x="1155" d="M156 0l143 1028h150v-129h8q121 154 334 154q168 0 238.5 -71t70.5 -212q0 -52 -10 -127l-91 -643h-178l84 602q10 72 10 119q0 90 -42 135t-150 45q-128 0 -205 -66.5t-94 -189.5l-90 -645h-178z" />
<glyph unicode="o" horiz-adv-x="1175" d="M172 393q0 106 21.5 202.5t66.5 180t110.5 145t158.5 97t204 35.5q201 0 307.5 -111.5t106.5 -312.5q0 -132 -36.5 -248.5t-105 -207t-178 -143.5t-245.5 -53q-200 0 -305 108.5t-105 307.5zM354 395q0 -280 248 -280q81 0 145.5 31.5t104 82.5t66 120t37 138.5 t10.5 143.5q0 280 -250 280q-82 0 -146 -31.5t-103.5 -82.5t-65.5 -120t-36 -138t-10 -144z" />
<glyph unicode="p" horiz-adv-x="1155" d="M92 -451l207 1479h145v-131h9q121 156 325 156q350 0 350 -389q0 -98 -16 -192t-54 -185t-94.5 -158.5t-145 -109.5t-197.5 -42q-189 0 -261 160h-8l-82 -588h-178zM385 344q0 -106 54.5 -169.5t162.5 -63.5q78 0 139.5 34.5t99.5 89t63 128.5t34.5 146.5t9.5 149.5 q0 118 -51.5 186t-179.5 68q-120 0 -197.5 -62.5t-95.5 -184.5l-35 -254q-4 -23 -4 -68z" />
<glyph unicode="q" horiz-adv-x="1155" d="M170 377q0 94 14.5 184.5t51.5 181t92 158.5t142.5 110t197.5 42q216 0 284 -156h9l32 131h150l-174 -1235q-5 -33 -5 -56q0 -25 6 -39q10 -28 62 -52l-117 -131q-73 25 -104 63.5t-31 108.5q0 29 6 69l54 381h-9q-59 -84 -134.5 -122t-176.5 -38q-95 0 -164.5 31 t-109 87.5t-58 126t-18.5 155.5zM352 389q0 -278 228 -278q126 0 203.5 83.5t97.5 215.5l34 258q4 26 4 49q0 83 -48 133q-61 63 -183 63q-81 0 -142.5 -33t-97.5 -84t-58.5 -123.5t-30 -140t-7.5 -143.5z" />
<glyph unicode="r" horiz-adv-x="747" d="M156 0l143 1028h150v-131h8q110 154 331 154h54l-23 -158h-45q-76 0 -133 -12t-103.5 -39t-75 -75t-38.5 -116l-90 -651h-178z" />
<glyph unicode="s" horiz-adv-x="921" d="M82 86l84 131q68 -47 151 -75.5t162 -28.5q96 0 162 41t66 129q0 39 -21.5 68.5t-57 48t-80.5 36.5t-92 33t-92 38.5t-80.5 51.5t-57 74t-21.5 104q0 81 33.5 143.5t91 99.5t128 55t150.5 18q182 0 330 -80l-70 -135q-54 36 -125 55.5t-139 19.5q-42 0 -78.5 -6 t-72.5 -21t-57 -45.5t-21 -74.5q0 -38 28 -67t72 -48.5t98 -38t108 -42t98 -54t72 -80.5t28 -114q0 -89 -32.5 -156.5t-89.5 -108t-129 -60.5t-157 -20q-224 0 -389 109z" />
<glyph unicode="t" horiz-adv-x="720" d="M168 883l20 145h172l39 283h176l-38 -283h243l-20 -145h-244l-84 -598q-6 -37 -6 -62q0 -48 33.5 -67t130.5 -19q36 0 65 2l-20 -141q-72 -10 -131 -10q-147 0 -203.5 44t-56.5 140q0 40 6 86l88 625h-170z" />
<glyph unicode="u" horiz-adv-x="1136" d="M199 262q0 49 10 131l90 635h178l-76 -543q-16 -106 -16 -172q0 -95 40 -140.5t142 -45.5q138 0 205.5 69.5t85.5 200.5l88 631h178l-143 -1028h-150v129h-8q-111 -152 -327 -152q-150 0 -223.5 62.5t-73.5 222.5z" />
<glyph unicode="v" horiz-adv-x="993" d="M184 1028h191l145 -870h8l383 870h185l-490 -1028h-215z" />
<glyph unicode="w" horiz-adv-x="1529" d="M195 1028h184l92 -852h8l355 852h145l119 -852h8l336 852h180l-442 -1028h-191l-117 764h-8l-329 -764h-191z" />
<glyph unicode="x" horiz-adv-x="972" d="M31 0l428 543l-244 485h203l164 -373h8l268 373h191l-375 -479l268 -549h-203l-188 424h-8l-307 -424h-205z" />
<glyph unicode="y" horiz-adv-x="1013" d="M25 -457l22 152q30 -6 88 -6q76 0 117.5 40.5t107.5 172.5l68 135l-248 991h193l172 -801h8l377 801h190l-596 -1161q-101 -199 -177 -264.5t-212 -65.5q-43 0 -110 6z" />
<glyph unicode="z" horiz-adv-x="929" d="M80 0l18 139l656 744h-539l21 145h741l-21 -145l-653 -738h565l-18 -145h-770z" />
<glyph unicode="{" horiz-adv-x="712" d="M215 598l18 141q68 14 97 57t39 117l53 379q20 139 79.5 206t192.5 67h101l-17 -119h-53q-34 0 -58.5 -8.5t-37.5 -19t-22.5 -35t-12.5 -41.5t-8 -53q-1 -11 -2 -17l-54 -381q-12 -82 -40.5 -126t-102.5 -95q47 -41 66.5 -75.5t19.5 -82.5q0 -28 -6 -66l-51 -366 q-8 -52 -8 -94q0 -45 21.5 -63.5t78.5 -18.5h53l-16 -117h-96q-114 0 -161.5 44t-47.5 136q0 28 8 90l53 367q5 44 3 79t-24 60t-65 35z" />
<glyph unicode="|" horiz-adv-x="477" d="M106 -414l273 1930h141l-272 -1930h-142z" />
<glyph unicode="}" horiz-adv-x="712" d="M106 -213l17 117h53q24 0 42.5 3.5t32 8.5t23 16.5t16 22.5t11.5 33t8 40.5t8 51.5l52 366q12 83 40 128.5t99 95.5q-45 39 -63.5 73t-18.5 80q0 27 6 68l53 381q1 7 6 41.5t5 50.5q0 41 -22 61.5t-79 20.5h-55l16 119h99q111 0 156.5 -45.5t45.5 -137.5q0 -28 -8 -90 l-53 -379q-10 -72 8 -116t80 -58l-18 -141q-69 -14 -98.5 -57t-39.5 -117l-53 -367q-20 -140 -78.5 -205t-193.5 -65h-97z" />
<glyph unicode="~" horiz-adv-x="849" d="M188 1171q56 82 112.5 115t135.5 33q62 0 166.5 -41t157.5 -41q88 0 139 82l109 -45q-39 -72 -102.5 -110t-141.5 -38q-64 0 -170 41t-160 41q-46 0 -78.5 -18t-64.5 -68z" />
<glyph unicode="&#xa1;" horiz-adv-x="575" d="M168 -334q108 609 170 996h145q-29 -249 -108 -996h-207zM319 920q0 60 43.5 97.5t104.5 37.5q49 0 83 -25.5t34 -73.5q0 -59 -44.5 -95t-105.5 -36q-47 0 -81 25t-34 70z" />
<glyph unicode="&#xa2;" d="M250 575q0 92 17.5 178.5t55 166t92 141t133.5 103.5t173 55l20 147h168l-20 -145q150 -14 272 -121l-96 -127q-101 110 -258 110q-81 0 -145.5 -28.5t-106.5 -76t-70 -112.5t-39.5 -134t-11.5 -144q0 -136 62 -213.5t194 -77.5q150 0 301 121l62 -115 q-150 -121 -314 -143l-20 -160h-168l20 160q-163 21 -242 132.5t-79 282.5z" />
<glyph unicode="&#xa3;" d="M129 0l18 145h41q65 0 114 31t76 84t39.5 115t12.5 133q0 60 -8 158h-172l20 141h150q-17 157 -17 199q0 183 108 283t312 100q200 0 348 -95l-65 -153q-131 94 -275 94q-133 0 -191 -60.5t-58 -191.5q0 -30 4.5 -90t5.5 -86h309l-20 -141h-283q14 -103 14 -170 q0 -106 -28 -188.5t-101 -145.5l-2 -6h588l-20 -156h-920z" />
<glyph unicode="&#xa4;" d="M147 309l164 144q-51 80 -51 184q0 169 119 301l-123 145l109 97l124 -148q121 78 252 78q133 0 228 -80l170 148l84 -97l-168 -145q49 -82 49 -182q0 -162 -117 -299l127 -148l-110 -96l-127 147q-116 -77 -252 -77q-130 0 -230 77l-166 -145zM420 659 q0 -96 64.5 -159.5t160.5 -63.5q119 0 210 89.5t91 207.5q0 98 -65 161.5t-162 63.5q-119 0 -209 -90t-90 -209z" />
<glyph unicode="&#xa5;" d="M170 291l18 123h371l16 123l-34 81h-324l16 123h250l-233 625h211l233 -666l414 666h201l-408 -625h254l-16 -123h-326l-51 -71l-19 -133h367l-18 -123h-367l-39 -291h-184l39 291h-371z" />
<glyph unicode="&#xa6;" horiz-adv-x="477" d="M106 -414l117 830h142l-117 -830h-142zM262 686l117 830h141l-117 -830h-141z" />
<glyph unicode="&#xa7;" horiz-adv-x="970" d="M106 -129l82 133q142 -100 293 -100q96 0 156.5 40.5t60.5 131.5q0 40 -29 73t-75 57t-101.5 47t-111 49.5t-101.5 57.5t-75 78t-29 105q0 70 27.5 124t75 87t105 51t124.5 22l2 7q-45 16 -84 37.5t-75 52t-56.5 71.5t-20.5 88q0 80 38 141.5t100 96t132 51.5t144 17 q161 0 320 -70l-70 -143q-130 73 -256 73q-40 0 -75.5 -6t-70.5 -20.5t-56 -45t-21 -73.5q0 -41 28 -73t72 -55t98 -44t108 -45t98 -52.5t72 -72.5t28 -100q0 -71 -26 -126t-72.5 -89t-104.5 -52.5t-127 -23.5v-9q53 -18 95 -39.5t80 -53t58.5 -76t20.5 -99.5 q0 -84 -36 -148.5t-96.5 -102t-133 -56t-152.5 -18.5q-106 0 -192 23.5t-171 78.5zM344 563q0 -38 19 -64.5t51 -39t63.5 -18t67.5 -5.5q243 0 243 182q0 123 -200 123q-244 0 -244 -178z" />
<glyph unicode="&#xa8;" horiz-adv-x="733" d="M248 1260q0 46 36.5 82t82.5 36q38 0 65 -26t27 -64q0 -45 -37.5 -81t-83.5 -36q-37 0 -63.5 26t-26.5 63zM631 1260q0 47 37.5 82.5t83.5 35.5q38 0 64 -26t26 -64q0 -46 -36.5 -81.5t-82.5 -35.5q-37 0 -64.5 25.5t-27.5 63.5z" />
<glyph unicode="&#xa9;" horiz-adv-x="1773" d="M178 684q0 144 56 274.5t151 225t226.5 150t275.5 55.5q192 0 355 -94t258 -256.5t95 -354.5q0 -144 -56 -274.5t-151 -224.5t-226 -149.5t-275 -55.5t-275 55.5t-226.5 149.5t-151.5 224.5t-56 274.5zM258 684q0 -169 85 -313.5t230 -229t314 -84.5q170 0 315.5 84.5 t230.5 229t85 313.5q0 171 -82.5 316.5t-228 231t-320.5 85.5q-131 0 -248 -50.5t-200.5 -136t-132 -202t-48.5 -244.5zM494 686q0 213 101 328.5t314 115.5q177 0 318 -129l-72 -92q-108 111 -244 111q-158 0 -221 -84t-63 -248q0 -169 61.5 -255.5t218.5 -86.5 q135 0 252 111l68 -92q-148 -132 -322 -132q-115 0 -196.5 33t-127.5 95.5t-66.5 141.5t-20.5 183z" />
<glyph unicode="&#xaa;" horiz-adv-x="798" d="M250 907q0 66 28.5 115.5t71 77.5t102.5 45.5t113 23t113 5.5q1 7 2.5 19t2.5 22t1 18q0 36 -22.5 50.5t-69.5 14.5q-117 0 -246 -63l-31 88q155 74 293 74q95 0 146 -34.5t51 -123.5q0 -50 -22.5 -177t-22.5 -171q0 -29 37 -51l-86 -82q-62 18 -70 67h-8 q-101 -71 -213 -71q-77 0 -123.5 39t-46.5 114zM371 926q0 -40 25 -64t65 -24q80 0 178 65l29 195q-38 0 -74 -3.5t-78 -15t-73 -29.5t-51.5 -50t-20.5 -74z" />
<glyph unicode="&#xab;" horiz-adv-x="929" d="M127 627l350 413l111 -67l-301 -348l207 -342l-132 -70zM518 627l340 401l113 -67l-293 -336l199 -330l-132 -70z" />
<glyph unicode="&#xac;" d="M168 459l22 155h967l-74 -524h-153l51 369h-813z" />
<glyph unicode="&#xad;" horiz-adv-x="770" d="M168 449l25 165h557l-25 -165h-557z" />
<glyph unicode="&#xae;" horiz-adv-x="927" d="M250 1085q0 145 104.5 247t253.5 102q148 0 252.5 -102t104.5 -247q0 -143 -104.5 -244.5t-252.5 -101.5q-149 0 -253.5 101.5t-104.5 244.5zM301 1087q0 -120 91.5 -208t215.5 -88t215.5 86.5t91.5 209.5q0 121 -90 209t-215 88q-129 0 -219 -88t-90 -209zM475 899v379 q106 8 135 8q158 0 158 -123q0 -62 -61 -100l69 -164h-88l-53 131q-5 8 -8 10t-13 2h-61v-143h-78zM553 1104h63q34 0 53 14.5t19 40.5q0 60 -76 60q-12 0 -32 -1t-27 -1v-113z" />
<glyph unicode="&#xaf;" horiz-adv-x="733" d="M227 1206l17 117h610l-16 -117h-611z" />
<glyph unicode="&#xb0;" horiz-adv-x="839" d="M274 1063q0 149 93.5 239.5t240.5 90.5q117 0 190.5 -69.5t73.5 -178.5q0 -149 -94.5 -239.5t-238.5 -90.5q-111 0 -188 70.5t-77 177.5zM358 1073q0 -80 53 -133t132 -53q113 0 179 67t66 181q0 82 -48 133t-136 51q-113 0 -179.5 -67.5t-66.5 -178.5z" />
<glyph unicode="&#xb1;" d="M104 0l21 150h967l-21 -150h-967zM184 578l23 153h409l54 387h157l-53 -387h400l-23 -153h-399l-47 -345h-158l47 345h-410z" />
<glyph unicode="&#xb2;" horiz-adv-x="632" d="M186 862q19 14 77 51t108 72t103.5 78.5t85.5 89.5t32 86q0 36 -21 63t-69 27q-49 0 -89.5 -19t-90.5 -65l-60 80q129 109 266 109q90 0 141.5 -47t51.5 -125q0 -33 -10.5 -65t-26 -58t-42.5 -54.5t-51 -49t-62 -47.5t-65.5 -45t-70 -45t-67.5 -44h346l-15 -102h-467z " />
<glyph unicode="&#xb3;" horiz-adv-x="618" d="M170 817l66 88q72 -67 170 -67q61 0 103 35.5t42 99.5q0 78 -111 78h-88l13 90h57q33 0 64.5 9t58 35.5t26.5 67.5q0 37 -25 58.5t-71 21.5q-97 0 -176 -65l-45 86q67 44 123.5 62t124.5 18q91 0 142.5 -38.5t51.5 -115.5q0 -116 -116 -166v-8q92 -24 92 -127 q0 -114 -71.5 -177t-197.5 -63q-143 0 -233 78z" />
<glyph unicode="&#xb4;" horiz-adv-x="733" d="M322 1221l315 247l164 -86l-387 -225z" />
<glyph unicode="&#xb5;" horiz-adv-x="1189" d="M115 -451l207 1479h180l-76 -541q-16 -109 -16 -178q0 -93 39.5 -136.5t142.5 -43.5q136 0 203.5 69t85.5 199l88 631h180l-143 -1028h-152v129h-10q-36 -48 -70.5 -78t-93.5 -52t-135 -22q-151 0 -195 97l-74 -525h-161z" />
<glyph unicode="&#xb6;" horiz-adv-x="999" d="M123 434q0 140 55.5 254.5t149.5 187.5t215.5 112.5t257.5 39.5h137l-143 -1028h-138q-108 0 -201.5 25t-169.5 75t-119.5 135.5t-43.5 198.5z" />
<glyph unicode="&#xb7;" horiz-adv-x="430" d="M150 469q0 59 43 95t104 36q48 0 81.5 -23.5t33.5 -70.5q0 -60 -43.5 -97.5t-104.5 -37.5q-49 0 -81.5 25.5t-32.5 72.5z" />
<glyph unicode="&#xb8;" horiz-adv-x="733" d="M135 -373l41 72q66 -39 127 -39q119 0 119 98q0 36 -26 52t-66 16q-43 0 -78 -14l-33 30l105 158h96l-82 -111q45 9 63 9q55 0 90 -30t35 -93q0 -97 -62.5 -147t-160.5 -50q-85 0 -168 49z" />
<glyph unicode="&#xb9;" horiz-adv-x="573" d="M174 752l14 100h170l62 434h-8l-152 -78l-27 92l230 121h100l-80 -569h162l-14 -100h-457z" />
<glyph unicode="&#xba;" horiz-adv-x="798" d="M252 1008q0 108 37.5 194.5t116.5 140.5t188 54q121 0 187.5 -64.5t66.5 -185.5q0 -168 -90.5 -280.5t-253.5 -112.5q-121 0 -186.5 66t-65.5 188zM377 1008q0 -156 143 -156q58 0 100 26t64 71t31.5 93.5t9.5 104.5q0 147 -145 147q-59 0 -100.5 -24.5t-63 -68 t-30.5 -90.5t-9 -103z" />
<glyph unicode="&#xbb;" horiz-adv-x="929" d="M133 295l291 330l-201 336l133 67l232 -401l-344 -402zM514 283l299 342l-205 348l133 67l238 -413l-354 -414z" />
<glyph unicode="&#xbc;" horiz-adv-x="1527" d="M248 752l14 100h170l62 434h-9l-151 -78l-27 92l230 121h100l-80 -569h162l-14 -100h-457zM285 0l1200 1434h108l-1200 -1434h-108zM944 233l369 437h135l-59 -430h104l-14 -103h-105l-18 -137h-127l18 137h-286zM1059 233h207l43 314z" />
<glyph unicode="&#xbd;" horiz-adv-x="1470" d="M205 0l1200 1434h108l-1200 -1434h-108zM231 752l15 100h170l61 434h-8l-152 -78l-26 92l229 121h101l-80 -569h161l-14 -100h-457zM915 111q19 14 77 51t108 72t103.5 78t85.5 89t32 86q0 36 -21.5 63.5t-68.5 27.5q-49 0 -89.5 -19t-90.5 -65l-60 79q129 109 266 109 q90 0 141.5 -47t51.5 -125q0 -33 -10.5 -65t-26 -58t-42.5 -54.5t-51 -49t-62 -47.5t-65.5 -45t-70 -45t-67.5 -44h346l-15 -102h-466z" />
<glyph unicode="&#xbe;" horiz-adv-x="1447" d="M242 817l65 88q72 -67 170 -67q61 0 103.5 35.5t42.5 99.5q0 78 -111 78h-88l12 90h58q33 0 64.5 9t58 35.5t26.5 67.5q0 37 -25 58.5t-71 21.5q-97 0 -176 -65l-45 86q67 44 123 62t124 18q91 0 143 -38.5t52 -115.5q0 -115 -117 -166v-8q92 -24 92 -127 q0 -114 -71 -177t-197 -63q-143 0 -233 78zM246 0l1200 1434h108l-1200 -1434h-108zM879 233l368 437h135l-59 -430h104l-14 -103h-104l-19 -137h-127l19 137h-287zM993 233h207l43 314z" />
<glyph unicode="&#xbf;" horiz-adv-x="1054" d="M147 -55q0 69 13 125t45.5 100t62 75t87 63.5t95 50t111.5 49.5q68 29 85 51t26 94l16 127h176l-22 -162q-13 -96 -43.5 -134t-120.5 -77q-19 -8 -61.5 -26t-63 -27t-57 -28t-55 -33.5t-43.5 -39t-37.5 -49t-21.5 -58.5t-9 -73q0 -64 34.5 -105.5t84.5 -57t114 -15.5 q169 0 336 121l70 -133q-114 -71 -219.5 -105t-229.5 -34q-76 0 -141 16.5t-118 50.5t-83.5 94t-30.5 140zM690 924q0 58 41 94.5t100 36.5q48 0 80.5 -25t32.5 -72q0 -59 -40.5 -94t-100.5 -35q-48 0 -80.5 24t-32.5 71z" />
<glyph unicode="&#xc0;" horiz-adv-x="1314" d="M45 0l696 1374h209l320 -1374h-201l-72 330h-596l-163 -330h-193zM469 483h500l-148 709h-8zM555 1667l193 82l241 -244l-108 -61z" />
<glyph unicode="&#xc1;" horiz-adv-x="1314" d="M45 0l696 1374h209l320 -1374h-201l-72 330h-596l-163 -330h-193zM469 483h500l-148 709h-8zM741 1507l316 248l164 -86l-387 -225z" />
<glyph unicode="&#xc2;" horiz-adv-x="1314" d="M45 0l696 1374h209l320 -1374h-201l-72 330h-596l-163 -330h-193zM469 483h500l-148 709h-8zM547 1542l344 201l295 -201l-92 -102l-220 162l-266 -162z" />
<glyph unicode="&#xc3;" horiz-adv-x="1314" d="M45 0l696 1374h209l320 -1374h-201l-72 330h-596l-163 -330h-193zM469 483h500l-148 709h-8zM526 1522q48 80 98 112.5t113 32.5q51 0 144 -41t129 -41q76 0 118 82l84 -68q-31 -70 -88 -107.5t-120 -37.5q-52 0 -144 41t-127 41q-81 0 -127 -84z" />
<glyph unicode="&#xc4;" horiz-adv-x="1314" d="M45 0l696 1374h209l320 -1374h-201l-72 330h-596l-163 -330h-193zM469 483h500l-148 709h-8zM573 1546q0 46 36.5 82.5t82.5 36.5q38 0 65 -26t27 -64q0 -45 -37 -81t-83 -36q-37 0 -64 26t-27 62zM956 1546q0 47 37.5 83t83.5 36q38 0 64 -26t26 -64q0 -46 -36 -81.5 t-82 -35.5q-38 0 -65.5 25.5t-27.5 62.5z" />
<glyph unicode="&#xc5;" horiz-adv-x="1316" d="M47 0l653 1292q-39 26 -61.5 71t-22.5 95q0 111 76.5 184.5t186.5 73.5q94 0 160.5 -53.5t66.5 -144.5q0 -71 -38 -133t-99 -91l303 -1294h-201l-72 330h-596l-163 -330h-193zM471 483h500l-146 713h-8zM727 1464q0 -50 32.5 -81t82.5 -31q66 0 109.5 44.5t43.5 110.5 q0 50 -31.5 80.5t-86.5 30.5q-70 0 -110 -44t-40 -110z" />
<glyph unicode="&#xc6;" horiz-adv-x="1839" d="M45 0l950 1366h936l-20 -156h-633l-57 -407h571l-23 -160h-571l-70 -487h654l-21 -156h-837l47 336h-504l-225 -336h-197zM565 496h430l99 710h-27z" />
<glyph unicode="&#xc7;" horiz-adv-x="1294" d="M217 520q0 135 28.5 261t88.5 237t145 193t205.5 130t263.5 48q132 0 239 -46.5t202 -142.5l-132 -123q-72 78 -149 116t-176 38q-110 0 -199.5 -41t-148 -108t-97.5 -158t-56 -187t-17 -198q0 -189 86.5 -297.5t271.5 -108.5q204 0 397 164l82 -127q-226 -182 -479 -190 l-70 -97q40 8 64 8q55 0 90 -29.5t35 -92.5q0 -97 -62.5 -147t-160.5 -50q-85 0 -168 49l41 72q66 -39 127 -39q118 0 118 98q0 36 -26 52t-66 16q-41 0 -78 -15l-32 31l94 144q-228 17 -344.5 156.5t-116.5 383.5z" />
<glyph unicode="&#xc8;" horiz-adv-x="1093" d="M176 0l191 1366h815l-23 -158h-629l-57 -407h569l-22 -160h-569l-68 -485h653l-20 -156h-840zM549 1667l192 82l242 -244l-109 -61z" />
<glyph unicode="&#xc9;" horiz-adv-x="1093" d="M176 0l191 1366h815l-23 -158h-629l-57 -407h569l-22 -160h-569l-68 -485h653l-20 -156h-840zM662 1507l315 248l164 -86l-387 -225z" />
<glyph unicode="&#xca;" horiz-adv-x="1093" d="M176 0l191 1366h815l-23 -158h-629l-57 -407h569l-22 -160h-569l-68 -485h653l-20 -156h-840zM483 1542l344 201l295 -201l-92 -102l-219 162l-266 -162z" />
<glyph unicode="&#xcb;" horiz-adv-x="1093" d="M176 0l191 1366h815l-23 -158h-629l-57 -407h569l-22 -160h-569l-68 -485h653l-20 -156h-840zM510 1546q0 46 36.5 82.5t82.5 36.5q38 0 65 -26t27 -64q0 -45 -37.5 -81t-83.5 -36q-37 0 -63.5 25.5t-26.5 62.5zM893 1546q0 47 37.5 83t83.5 36q38 0 64 -26t26 -64 q0 -46 -36.5 -81.5t-82.5 -35.5q-38 0 -65 25t-27 63z" />
<glyph unicode="&#xcc;" horiz-adv-x="538" d="M174 1667l193 82l241 -244l-108 -61zM176 0l191 1366h186l-191 -1366h-186z" />
<glyph unicode="&#xcd;" horiz-adv-x="538" d="M176 0l191 1366h186l-191 -1366h-186zM360 1507l316 248l164 -86l-387 -225z" />
<glyph unicode="&#xce;" horiz-adv-x="538" d="M176 0l191 1366h186l-191 -1366h-186zM176 1542l344 201l295 -201l-92 -102l-219 162l-266 -162z" />
<glyph unicode="&#xcf;" horiz-adv-x="538" d="M176 0l191 1366h186l-191 -1366h-186zM195 1546q0 46 36 82.5t82 36.5q39 0 66 -26t27 -64q0 -45 -37.5 -81t-83.5 -36q-37 0 -63.5 25.5t-26.5 62.5zM578 1546q0 47 37 83t83 36q38 0 64 -26t26 -64q0 -46 -36 -81.5t-82 -35.5q-38 0 -65 25t-27 63z" />
<glyph unicode="&#xd0;" horiz-adv-x="1370" d="M137 651l23 154h131l78 553q274 24 413 24q267 0 415.5 -138t148.5 -402q0 -179 -50 -331.5t-144.5 -266.5t-241 -179t-328.5 -65h-404l90 651h-131zM383 154q66 -2 197 -2q261 0 392.5 136.5t168.5 405.5q10 75 10 140q0 191 -94 293t-285 102q-120 0 -240 -12l-57 -412 h320l-23 -154h-319z" />
<glyph unicode="&#xd1;" horiz-adv-x="1435" d="M176 0l191 1366h184l563 -1051h8l148 1051h180l-190 -1366h-175l-571 1065h-8l-150 -1065h-180zM606 1522q48 80 98 112.5t113 32.5q51 0 144 -41t129 -41q76 0 118 82l84 -68q-31 -70 -88.5 -107.5t-120.5 -37.5q-52 0 -143.5 41t-126.5 41q-81 0 -127 -84z" />
<glyph unicode="&#xd2;" horiz-adv-x="1527" d="M215 528q0 138 29.5 264.5t91 235.5t148 189t208.5 126t266 46q263 0 403 -142.5t140 -404.5q0 -139 -29 -266t-89.5 -236.5t-147 -190t-208.5 -126.5t-267 -46q-264 0 -404.5 143.5t-140.5 407.5zM412 535q0 -406 368 -406q95 0 175 28.5t136.5 80t99 118.5t67.5 147.5 t37 163t12 169.5q0 401 -371 401q-114 0 -205 -41t-149.5 -109t-97.5 -160.5t-55.5 -189.5t-16.5 -202zM745 1671l193 82l242 -244l-109 -61z" />
<glyph unicode="&#xd3;" horiz-adv-x="1527" d="M215 528q0 138 29.5 264.5t91 235.5t148 189t208.5 126t266 46q263 0 403 -142.5t140 -404.5q0 -139 -29 -266t-89.5 -236.5t-147 -190t-208.5 -126.5t-267 -46q-264 0 -404.5 143.5t-140.5 407.5zM412 535q0 -406 368 -406q95 0 175 28.5t136.5 80t99 118.5t67.5 147.5 t37 163t12 169.5q0 401 -371 401q-114 0 -205 -41t-149.5 -109t-97.5 -160.5t-55.5 -189.5t-16.5 -202zM842 1511l315 248l164 -86l-387 -225z" />
<glyph unicode="&#xd4;" horiz-adv-x="1527" d="M215 528q0 138 29.5 264.5t91 235.5t148 189t208.5 126t266 46q263 0 403 -142.5t140 -404.5q0 -139 -29 -266t-89.5 -236.5t-147 -190t-208.5 -126.5t-267 -46q-264 0 -404.5 143.5t-140.5 407.5zM412 535q0 -406 368 -406q95 0 175 28.5t136.5 80t99 118.5t67.5 147.5 t37 163t12 169.5q0 401 -371 401q-114 0 -205 -41t-149.5 -109t-97.5 -160.5t-55.5 -189.5t-16.5 -202zM670 1542l344 201l295 -201l-92 -102l-220 162l-266 -162z" />
<glyph unicode="&#xd5;" horiz-adv-x="1527" d="M215 528q0 138 29.5 264.5t91 235.5t148 189t208.5 126t266 46q263 0 403 -142.5t140 -404.5q0 -139 -29 -266t-89.5 -236.5t-147 -190t-208.5 -126.5t-267 -46q-264 0 -404.5 143.5t-140.5 407.5zM412 535q0 -406 368 -406q95 0 175 28.5t136.5 80t99 118.5t67.5 147.5 t37 163t12 169.5q0 401 -371 401q-114 0 -205 -41t-149.5 -109t-97.5 -160.5t-55.5 -189.5t-16.5 -202zM631 1526q48 80 98 112.5t113 32.5q52 0 144 -41t128 -41q77 0 119 82l84 -67q-31 -70 -88.5 -108t-120.5 -38q-52 0 -143.5 41t-126.5 41q-81 0 -127 -84z" />
<glyph unicode="&#xd6;" horiz-adv-x="1527" d="M215 528q0 138 29.5 264.5t91 235.5t148 189t208.5 126t266 46q263 0 403 -142.5t140 -404.5q0 -139 -29 -266t-89.5 -236.5t-147 -190t-208.5 -126.5t-267 -46q-264 0 -404.5 143.5t-140.5 407.5zM412 535q0 -406 368 -406q95 0 175 28.5t136.5 80t99 118.5t67.5 147.5 t37 163t12 169.5q0 401 -371 401q-114 0 -205 -41t-149.5 -109t-97.5 -160.5t-55.5 -189.5t-16.5 -202zM684 1546q0 46 36.5 82.5t82.5 36.5q38 0 65 -26t27 -64q0 -45 -37.5 -81t-83.5 -36q-37 0 -63.5 25.5t-26.5 62.5zM1067 1546q0 47 37.5 83t83.5 36q38 0 64 -26 t26 -64q0 -46 -36.5 -81.5t-82.5 -35.5q-38 0 -65 25t-27 63z" />
<glyph unicode="&#xd7;" d="M188 211l367 319l-266 310l125 108l264 -309l356 309l90 -108l-352 -310l272 -319l-122 -109l-275 320l-364 -320z" />
<glyph unicode="&#xd8;" horiz-adv-x="1527" d="M162 47l135 146q-82 131 -82 335q0 138 29.5 264.5t91 235.5t148 189t208.5 126t266 46q226 0 361 -107l119 127l104 -88l-129 -139q88 -136 88 -340q0 -139 -29 -266t-89.5 -236.5t-147 -190t-208.5 -126.5t-267 -46q-230 0 -369 111l-129 -137zM412 535q0 -112 26 -191 l758 807q-92 86 -260 86q-114 0 -205 -41t-149.5 -109t-97.5 -160.5t-55.5 -189.5t-16.5 -202zM514 221q92 -92 266 -92q95 0 175 28.5t136.5 80t99 118.5t67.5 147.5t37 163t12 169.5q0 119 -33 198z" />
<glyph unicode="&#xd9;" horiz-adv-x="1370" d="M238 377q0 71 12 153l117 836h186l-117 -836q-10 -72 -10 -122q0 -133 63.5 -204t212.5 -71q94 0 163 28.5t111.5 83.5t67 123.5t37.5 161.5l117 836h186l-116 -836q-40 -285 -180.5 -419t-407.5 -134q-229 0 -335.5 98t-106.5 302zM578 1667l192 82l242 -244l-109 -61z " />
<glyph unicode="&#xda;" horiz-adv-x="1370" d="M238 377q0 71 12 153l117 836h186l-117 -836q-10 -72 -10 -122q0 -133 63.5 -204t212.5 -71q94 0 163 28.5t111.5 83.5t67 123.5t37.5 161.5l117 836h186l-116 -836q-40 -285 -180.5 -419t-407.5 -134q-229 0 -335.5 98t-106.5 302zM782 1507l316 248l164 -86l-388 -225z " />
<glyph unicode="&#xdb;" horiz-adv-x="1370" d="M238 377q0 71 12 153l117 836h186l-117 -836q-10 -72 -10 -122q0 -133 63.5 -204t212.5 -71q94 0 163 28.5t111.5 83.5t67 123.5t37.5 161.5l117 836h186l-116 -836q-40 -285 -180.5 -419t-407.5 -134q-229 0 -335.5 98t-106.5 302zM586 1542l344 201l295 -201l-92 -102 l-220 162l-266 -162z" />
<glyph unicode="&#xdc;" horiz-adv-x="1370" d="M238 377q0 71 12 153l117 836h186l-117 -836q-10 -72 -10 -122q0 -133 63.5 -204t212.5 -71q94 0 163 28.5t111.5 83.5t67 123.5t37.5 161.5l117 836h186l-116 -836q-40 -285 -180.5 -419t-407.5 -134q-229 0 -335.5 98t-106.5 302zM608 1546q0 46 36.5 82.5t82.5 36.5 q38 0 65 -26t27 -64q0 -45 -37.5 -81t-83.5 -36q-37 0 -63.5 25.5t-26.5 62.5zM991 1546q0 47 37.5 83t83.5 36q38 0 64 -26t26 -64q0 -46 -36.5 -81.5t-82.5 -35.5q-38 0 -65 25t-27 63z" />
<glyph unicode="&#xdd;" horiz-adv-x="1171" d="M217 1366h211l258 -659l444 659h205l-579 -823l-76 -543h-186l73 537zM698 1491l316 248l164 -86l-387 -226z" />
<glyph unicode="&#xde;" horiz-adv-x="1230" d="M176 0l191 1366h182l-35 -250q153 10 248 10q85 0 153 -10t127.5 -34.5t99.5 -62.5t62.5 -97t22.5 -136q0 -243 -134 -382.5t-384 -139.5h-312l-37 -264h-184zM418 414h272q176 0 263 84t87 268q0 116 -72 161.5t-231 45.5q-108 0 -243 -12z" />
<glyph unicode="&#xdf;" horiz-adv-x="1089" d="M156 0l155 1108q26 178 127.5 257t286.5 79q86 0 153 -24t110.5 -83t43.5 -147q0 -67 -19.5 -125t-57.5 -105t-81.5 -83.5t-103.5 -75.5v-8q131 -60 209 -158t78 -232q0 -182 -116.5 -305t-299.5 -123q-116 0 -184 29l47 131q58 -22 117 -22q122 0 187.5 77.5t65.5 208.5 q0 60 -23 109t-66 83.5t-87.5 57.5t-103.5 45l-6 117q59 35 101.5 67t87 77t68 100t23.5 116q0 142 -163 142q-103 0 -153.5 -53.5t-64.5 -159.5l-153 -1100h-178z" />
<glyph unicode="&#xe0;" horiz-adv-x="1155" d="M170 373q0 92 14.5 182t50.5 182t91 160.5t143 112t199 43.5q98 0 167 -32.5t111 -111.5h8l35 119h154l-144 -1028h-149l10 158h-8q-120 -181 -336 -181q-93 0 -161.5 30t-108 85t-58 124.5t-18.5 156.5zM352 385q0 -274 228 -274q126 0 203.5 83.5t97.5 215.5l34 258 q17 120 -44.5 182.5t-182.5 62.5q-81 0 -143 -34.5t-98 -86.5t-58 -125.5t-29.5 -140.5t-7.5 -141zM434 1380l193 82l241 -243l-108 -62z" />
<glyph unicode="&#xe1;" horiz-adv-x="1155" d="M170 373q0 92 14.5 182t50.5 182t91 160.5t143 112t199 43.5q98 0 167 -32.5t111 -111.5h8l35 119h154l-144 -1028h-149l10 158h-8q-120 -181 -336 -181q-93 0 -161.5 30t-108 85t-58 124.5t-18.5 156.5zM352 385q0 -274 228 -274q126 0 203.5 83.5t97.5 215.5l34 258 q17 120 -44.5 182.5t-182.5 62.5q-81 0 -143 -34.5t-98 -86.5t-58 -125.5t-29.5 -140.5t-7.5 -141zM561 1221l316 247l163 -86l-387 -225z" />
<glyph unicode="&#xe2;" horiz-adv-x="1155" d="M170 373q0 92 14.5 182t50.5 182t91 160.5t143 112t199 43.5q98 0 167 -32.5t111 -111.5h8l35 119h154l-144 -1028h-149l10 158h-8q-120 -181 -336 -181q-93 0 -161.5 30t-108 85t-58 124.5t-18.5 156.5zM352 385q0 -274 228 -274q126 0 203.5 83.5t97.5 215.5l34 258 q17 120 -44.5 182.5t-182.5 62.5q-81 0 -143 -34.5t-98 -86.5t-58 -125.5t-29.5 -140.5t-7.5 -141zM391 1253l344 201l295 -201l-92 -102l-219 162l-266 -162z" />
<glyph unicode="&#xe3;" horiz-adv-x="1155" d="M170 373q0 92 14.5 182t50.5 182t91 160.5t143 112t199 43.5q98 0 167 -32.5t111 -111.5h8l35 119h154l-144 -1028h-149l10 158h-8q-120 -181 -336 -181q-93 0 -161.5 30t-108 85t-58 124.5t-18.5 156.5zM352 385q0 -274 228 -274q126 0 203.5 83.5t97.5 215.5l34 258 q17 120 -44.5 182.5t-182.5 62.5q-81 0 -143 -34.5t-98 -86.5t-58 -125.5t-29.5 -140.5t-7.5 -141zM358 1235q48 80 98 112.5t113 32.5q51 0 144 -41t129 -41q77 0 119 82l83 -67q-31 -71 -88 -108.5t-120 -37.5q-52 0 -144 41t-127 41q-81 0 -127 -84z" />
<glyph unicode="&#xe4;" horiz-adv-x="1155" d="M170 373q0 92 14.5 182t50.5 182t91 160.5t143 112t199 43.5q98 0 167 -32.5t111 -111.5h8l35 119h154l-144 -1028h-149l10 158h-8q-120 -181 -336 -181q-93 0 -161.5 30t-108 85t-58 124.5t-18.5 156.5zM352 385q0 -274 228 -274q126 0 203.5 83.5t97.5 215.5l34 258 q17 120 -44.5 182.5t-182.5 62.5q-81 0 -143 -34.5t-98 -86.5t-58 -125.5t-29.5 -140.5t-7.5 -141zM424 1260q0 46 36.5 82t82.5 36q38 0 65 -26t27 -64q0 -45 -37.5 -81t-83.5 -36q-37 0 -63.5 26t-26.5 63zM807 1260q0 47 37.5 82.5t83.5 35.5q38 0 64 -26t26 -64 q0 -46 -36.5 -81.5t-82.5 -35.5q-37 0 -64.5 25.5t-27.5 63.5z" />
<glyph unicode="&#xe5;" horiz-adv-x="1155" d="M170 373q0 92 14.5 182t50.5 182t91 160.5t143 112t199 43.5q98 0 167 -32.5t111 -111.5h8l35 119h154l-144 -1028h-149l10 158h-8q-120 -181 -336 -181q-93 0 -161.5 30t-108 85t-58 124.5t-18.5 156.5zM352 385q0 -274 228 -274q126 0 203.5 83.5t97.5 215.5l34 258 q17 120 -44.5 182.5t-182.5 62.5q-81 0 -143 -34.5t-98 -86.5t-58 -125.5t-29.5 -140.5t-7.5 -141zM537 1309q0 91 62.5 151t154.5 60q77 0 127.5 -46.5t50.5 -119.5q0 -88 -62 -147.5t-151 -59.5q-76 0 -129 45t-53 117zM627 1315q0 -42 25 -67t67 -25q53 0 88 34t35 93 q0 44 -25 69t-67 25q-54 0 -88.5 -35.5t-34.5 -93.5z" />
<glyph unicode="&#xe6;" horiz-adv-x="1757" d="M127 233q0 426 707 426q1 14 4.5 39t5.5 45.5t2 38.5q0 76 -41 103.5t-121 27.5q-95 0 -197.5 -32.5t-191.5 -85.5l-45 131q125 62 235.5 94.5t227.5 32.5q250 0 280 -172q71 84 166 129t203 45q184 0 279.5 -109.5t95.5 -296.5q0 -106 -23 -194h-723q-4 -46 -4 -70 q0 -129 68.5 -197.5t197.5 -68.5q164 0 316 104l47 -125q-188 -121 -385 -121q-252 0 -359 168q-211 -168 -456 -168q-128 0 -208.5 66t-80.5 190zM307 264q0 -71 45.5 -113t124.5 -42q95 0 185.5 42t158.5 105q-18 58 -18 123q0 58 16 168q-512 0 -512 -283zM1006 580h563 q4 50 4 73q0 124 -56.5 194.5t-177.5 70.5q-71 0 -130.5 -27.5t-100 -75t-66.5 -107.5t-36 -128z" />
<glyph unicode="&#xe7;" horiz-adv-x="1013" d="M170 397q0 104 23.5 201t71.5 179.5t115.5 144t160.5 96.5t202 35q193 0 338 -129l-96 -125q-98 112 -256 112q-78 0 -142 -29.5t-106.5 -78t-71.5 -113.5t-42 -133.5t-13 -140.5q0 -138 64.5 -217.5t199.5 -79.5q159 0 300 110l45 -125q-175 -119 -351 -127l-69 -94 q40 8 63 8q55 0 90 -29.5t35 -92.5q0 -97 -62.5 -147t-160.5 -50q-85 0 -168 49l41 72q66 -39 127 -39q119 0 119 98q0 36 -26 52t-66 16q-41 0 -78 -15l-33 31l96 146q-169 17 -259.5 124.5t-90.5 290.5z" />
<glyph unicode="&#xe8;" horiz-adv-x="1112" d="M172 393q0 101 21 196t66 180t109.5 148.5t156.5 100.5t202 37q176 0 270.5 -109.5t94.5 -296.5q0 -77 -21 -192h-721q-6 -43 -6 -80q0 -125 67.5 -193.5t198.5 -68.5q159 0 322 106l45 -123q-186 -121 -391 -121q-204 0 -309 109.5t-105 306.5zM367 578h557q6 44 6 84 q0 117 -53.5 189.5t-165.5 72.5q-81 0 -144.5 -30t-103 -81.5t-63 -109.5t-33.5 -125zM459 1380l192 82l242 -243l-109 -62z" />
<glyph unicode="&#xe9;" horiz-adv-x="1112" d="M172 393q0 101 21 196t66 180t109.5 148.5t156.5 100.5t202 37q176 0 270.5 -109.5t94.5 -296.5q0 -77 -21 -192h-721q-6 -43 -6 -80q0 -125 67.5 -193.5t198.5 -68.5q159 0 322 106l45 -123q-186 -121 -391 -121q-204 0 -309 109.5t-105 306.5zM367 578h557q6 44 6 84 q0 117 -53.5 189.5t-165.5 72.5q-81 0 -144.5 -30t-103 -81.5t-63 -109.5t-33.5 -125zM621 1221l315 247l164 -86l-387 -225z" />
<glyph unicode="&#xea;" horiz-adv-x="1112" d="M172 393q0 101 21 196t66 180t109.5 148.5t156.5 100.5t202 37q176 0 270.5 -109.5t94.5 -296.5q0 -77 -21 -192h-721q-6 -43 -6 -80q0 -125 67.5 -193.5t198.5 -68.5q159 0 322 106l45 -123q-186 -121 -391 -121q-204 0 -309 109.5t-105 306.5zM367 578h557q6 44 6 84 q0 117 -53.5 189.5t-165.5 72.5q-81 0 -144.5 -30t-103 -81.5t-63 -109.5t-33.5 -125zM434 1255l344 201l295 -201l-92 -102l-219 162l-266 -162z" />
<glyph unicode="&#xeb;" horiz-adv-x="1112" d="M172 393q0 101 21 196t66 180t109.5 148.5t156.5 100.5t202 37q176 0 270.5 -109.5t94.5 -296.5q0 -77 -21 -192h-721q-6 -43 -6 -80q0 -125 67.5 -193.5t198.5 -68.5q159 0 322 106l45 -123q-186 -121 -391 -121q-204 0 -309 109.5t-105 306.5zM367 578h557q6 44 6 84 q0 117 -53.5 189.5t-165.5 72.5q-81 0 -144.5 -30t-103 -81.5t-63 -109.5t-33.5 -125zM461 1260q0 46 36.5 82t82.5 36q38 0 65 -26t27 -64q0 -45 -37.5 -81t-83.5 -36q-37 0 -63.5 26t-26.5 63zM844 1260q0 47 37.5 82.5t83.5 35.5q38 0 64 -26t26 -64q0 -46 -36.5 -81.5 t-82.5 -35.5q-37 0 -64.5 25.5t-27.5 63.5z" />
<glyph unicode="&#xec;" horiz-adv-x="489" d="M127 1380l192 82l242 -243l-108 -62zM156 0l143 1028h178l-143 -1028h-178z" />
<glyph unicode="&#xed;" horiz-adv-x="489" d="M156 0l143 1028h178l-143 -1028h-178zM283 1221l315 247l164 -86l-387 -225z" />
<glyph unicode="&#xee;" horiz-adv-x="489" d="M109 1255l344 201l295 -201l-93 -102l-219 162l-266 -162zM156 0l143 1028h178l-143 -1028h-178z" />
<glyph unicode="&#xef;" horiz-adv-x="489" d="M131 1260q0 46 36.5 82t82.5 36q38 0 65 -26t27 -64q0 -45 -37.5 -81t-83.5 -36q-37 0 -63.5 26t-26.5 63zM156 0l143 1028h178l-143 -1028h-178zM514 1260q0 47 37.5 82.5t83.5 35.5q38 0 64 -26t26 -64q0 -46 -36.5 -81.5t-82.5 -35.5q-37 0 -64.5 25.5t-27.5 63.5z " />
<glyph unicode="&#xf0;" horiz-adv-x="1202" d="M201 379q0 98 17 186t55 167t94.5 136.5t140.5 91t188 33.5q93 0 159 -28t103 -101h9q-3 164 -82 332l-264 -123l-37 105l250 116q-39 63 -105 129l162 43q53 -56 92 -106l174 90l37 -107l-158 -81q99 -186 99 -488q0 -100 -10 -189.5t-33.5 -182t-66 -166.5t-102.5 -133 t-149 -91t-199 -32q-184 0 -279 106t-95 293zM379 377q0 -260 231 -260q78 0 138.5 33t96.5 84.5t59 121.5t31.5 136.5t8.5 138.5q0 121 -55.5 178t-177.5 57q-85 0 -145 -28t-95 -82.5t-53 -114t-29 -143.5q-10 -68 -10 -121z" />
<glyph unicode="&#xf1;" horiz-adv-x="1155" d="M156 0l143 1028h150v-129h8q121 154 334 154q168 0 238.5 -71t70.5 -212q0 -52 -10 -127l-91 -643h-178l84 602q10 72 10 119q0 90 -42 135t-150 45q-128 0 -205 -66.5t-94 -189.5l-90 -645h-178zM420 1235q48 80 98 112.5t113 32.5q52 0 144 -41t128 -41q77 0 119 82 l84 -67q-31 -70 -88.5 -108t-120.5 -38q-52 0 -143.5 41t-126.5 41q-81 0 -127 -84z" />
<glyph unicode="&#xf2;" horiz-adv-x="1175" d="M172 393q0 106 21.5 202.5t66.5 180t110.5 145t158.5 97t204 35.5q201 0 307.5 -111.5t106.5 -312.5q0 -132 -36.5 -248.5t-105 -207t-178 -143.5t-245.5 -53q-200 0 -305 108.5t-105 307.5zM354 395q0 -280 248 -280q81 0 145.5 31.5t104 82.5t66 120t37 138.5 t10.5 143.5q0 280 -250 280q-82 0 -146 -31.5t-103.5 -82.5t-65.5 -120t-36 -138t-10 -144zM475 1380l193 82l241 -243l-108 -62z" />
<glyph unicode="&#xf3;" horiz-adv-x="1175" d="M172 393q0 106 21.5 202.5t66.5 180t110.5 145t158.5 97t204 35.5q201 0 307.5 -111.5t106.5 -312.5q0 -132 -36.5 -248.5t-105 -207t-178 -143.5t-245.5 -53q-200 0 -305 108.5t-105 307.5zM354 395q0 -280 248 -280q81 0 145.5 31.5t104 82.5t66 120t37 138.5 t10.5 143.5q0 280 -250 280q-82 0 -146 -31.5t-103.5 -82.5t-65.5 -120t-36 -138t-10 -144zM629 1221l315 247l164 -86l-387 -225z" />
<glyph unicode="&#xf4;" horiz-adv-x="1175" d="M172 393q0 106 21.5 202.5t66.5 180t110.5 145t158.5 97t204 35.5q201 0 307.5 -111.5t106.5 -312.5q0 -132 -36.5 -248.5t-105 -207t-178 -143.5t-245.5 -53q-200 0 -305 108.5t-105 307.5zM354 395q0 -280 248 -280q81 0 145.5 31.5t104 82.5t66 120t37 138.5 t10.5 143.5q0 280 -250 280q-82 0 -146 -31.5t-103.5 -82.5t-65.5 -120t-36 -138t-10 -144zM446 1255l345 201l294 -201l-92 -102l-219 162l-266 -162z" />
<glyph unicode="&#xf5;" horiz-adv-x="1175" d="M172 393q0 106 21.5 202.5t66.5 180t110.5 145t158.5 97t204 35.5q201 0 307.5 -111.5t106.5 -312.5q0 -132 -36.5 -248.5t-105 -207t-178 -143.5t-245.5 -53q-200 0 -305 108.5t-105 307.5zM354 395q0 -280 248 -280q81 0 145.5 31.5t104 82.5t66 120t37 138.5 t10.5 143.5q0 280 -250 280q-82 0 -146 -31.5t-103.5 -82.5t-65.5 -120t-36 -138t-10 -144zM426 1235q48 80 98 112.5t113 32.5q51 0 143 -41t129 -41q77 0 119 82l84 -67q-31 -70 -88.5 -108t-120.5 -38q-52 0 -143.5 41t-126.5 41q-81 0 -127 -84z" />
<glyph unicode="&#xf6;" horiz-adv-x="1175" d="M172 393q0 106 21.5 202.5t66.5 180t110.5 145t158.5 97t204 35.5q201 0 307.5 -111.5t106.5 -312.5q0 -132 -36.5 -248.5t-105 -207t-178 -143.5t-245.5 -53q-200 0 -305 108.5t-105 307.5zM354 395q0 -280 248 -280q81 0 145.5 31.5t104 82.5t66 120t37 138.5 t10.5 143.5q0 280 -250 280q-82 0 -146 -31.5t-103.5 -82.5t-65.5 -120t-36 -138t-10 -144zM473 1260q0 46 36.5 82t82.5 36q38 0 65 -26t27 -64q0 -45 -37.5 -81t-83.5 -36q-37 0 -63.5 26t-26.5 63zM856 1260q0 47 37.5 82.5t83.5 35.5q38 0 64 -26t26 -64 q0 -46 -36.5 -81.5t-82.5 -35.5q-37 0 -64.5 25.5t-27.5 63.5z" />
<glyph unicode="&#xf7;" d="M168 459l22 155h967l-22 -155h-967zM504 182q0 52 39.5 89.5t91.5 37.5q41 0 68.5 -27t27.5 -67q0 -51 -39 -90t-90 -39q-41 0 -69.5 27.5t-28.5 68.5zM600 864q0 52 39.5 89.5t91.5 37.5q41 0 68.5 -27t27.5 -67q0 -51 -39 -90t-90 -39q-41 0 -69.5 27.5t-28.5 68.5z " />
<glyph unicode="&#xf8;" horiz-adv-x="1175" d="M100 45l119 121q-47 87 -47 227q0 106 21.5 202.5t66.5 180t110.5 145t158.5 97t204 35.5q169 0 277 -84l131 133l82 -80l-138 -139q62 -103 62 -254q0 -132 -36.5 -248.5t-105 -207t-178 -143.5t-245.5 -53q-187 0 -297 99l-111 -113zM354 395q0 -45 6 -86l533 541 q-64 61 -178 61q-82 0 -146 -31.5t-103.5 -82.5t-65.5 -120t-36 -138t-10 -144zM406 197q63 -82 196 -82q81 0 145.5 31.5t104 82.5t66 120t37 138.5t10.5 143.5q0 51 -15 117z" />
<glyph unicode="&#xf9;" horiz-adv-x="1136" d="M199 262q0 49 10 131l90 635h178l-76 -543q-16 -106 -16 -172q0 -95 40 -140.5t142 -45.5q138 0 205.5 69.5t85.5 200.5l88 631h178l-143 -1028h-150v129h-8q-111 -152 -327 -152q-150 0 -223.5 62.5t-73.5 222.5zM418 1380l192 82l242 -243l-109 -62z" />
<glyph unicode="&#xfa;" horiz-adv-x="1136" d="M199 262q0 49 10 131l90 635h178l-76 -543q-16 -106 -16 -172q0 -95 40 -140.5t142 -45.5q138 0 205.5 69.5t85.5 200.5l88 631h178l-143 -1028h-150v129h-8q-111 -152 -327 -152q-150 0 -223.5 62.5t-73.5 222.5zM616 1221l316 247l164 -86l-387 -225z" />
<glyph unicode="&#xfb;" horiz-adv-x="1136" d="M199 262q0 49 10 131l90 635h178l-76 -543q-16 -106 -16 -172q0 -95 40 -140.5t142 -45.5q138 0 205.5 69.5t85.5 200.5l88 631h178l-143 -1028h-150v129h-8q-111 -152 -327 -152q-150 0 -223.5 62.5t-73.5 222.5zM432 1255l344 201l295 -201l-92 -102l-219 162 l-266 -162z" />
<glyph unicode="&#xfc;" horiz-adv-x="1136" d="M199 262q0 49 10 131l90 635h178l-76 -543q-16 -106 -16 -172q0 -95 40 -140.5t142 -45.5q138 0 205.5 69.5t85.5 200.5l88 631h178l-143 -1028h-150v129h-8q-111 -152 -327 -152q-150 0 -223.5 62.5t-73.5 222.5zM461 1260q0 46 36.5 82t82.5 36q38 0 65 -26t27 -64 q0 -45 -37.5 -81t-83.5 -36q-37 0 -63.5 26t-26.5 63zM844 1260q0 47 37.5 82.5t83.5 35.5q38 0 64 -26t26 -64q0 -46 -36.5 -81.5t-82.5 -35.5q-37 0 -64.5 25.5t-27.5 63.5z" />
<glyph unicode="&#xfd;" horiz-adv-x="1013" d="M25 -457l22 152q30 -6 88 -6q76 0 117.5 40.5t107.5 172.5l68 135l-248 991h193l172 -801h8l377 801h190l-596 -1161q-101 -199 -177 -264.5t-212 -65.5q-43 0 -110 6zM578 1221l315 247l164 -86l-387 -225z" />
<glyph unicode="&#xfe;" horiz-adv-x="1155" d="M92 -451l264 1885h166l-73 -527h8q66 79 144.5 112.5t176.5 33.5q94 0 163 -29t109 -83t59 -124t19 -158q0 -79 -12.5 -157.5t-38 -155.5t-67.5 -142.5t-97.5 -116t-132 -79t-166.5 -28.5q-179 0 -262 147l-4 2l-80 -580h-176zM387 348q0 -108 55.5 -169.5t163.5 -61.5 q78 0 139 34t98.5 88.5t61.5 128t33.5 146t9.5 150.5q0 120 -51.5 184.5t-177.5 64.5q-124 0 -200 -62t-93 -183l-35 -254q-4 -23 -4 -66z" />
<glyph unicode="&#xff;" horiz-adv-x="1013" d="M25 -457l22 152q30 -6 88 -6q76 0 117.5 40.5t107.5 172.5l68 135l-248 991h193l172 -801h8l377 801h190l-596 -1161q-101 -199 -177 -264.5t-212 -65.5q-43 0 -110 6zM403 1260q0 46 36.5 82t82.5 36q38 0 65 -26t27 -64q0 -45 -37 -81t-83 -36q-37 0 -64 26t-27 63z M786 1260q0 47 37.5 82.5t83.5 35.5q38 0 64 -26t26 -64q0 -46 -36 -81.5t-82 -35.5q-38 0 -65.5 25.5t-27.5 63.5z" />
<glyph unicode="&#x152;" horiz-adv-x="1830" d="M215 516q0 129 24.5 251t80.5 236t138 199t206 136t276 51q120 0 217 -23h764l-23 -158h-577l-57 -407h518l-23 -160h-518l-67 -485h600l-21 -156h-786q-121 -23 -226 -23q-138 0 -240 39t-164 111.5t-92 169.5t-30 219zM410 522q0 -393 358 -393q117 0 221 33l146 1040 q-89 35 -211 35q-113 0 -203 -42t-147 -111t-95 -163.5t-53.5 -193t-15.5 -205.5z" />
<glyph unicode="&#x153;" horiz-adv-x="1898" d="M170 389q0 106 22 203.5t67.5 181.5t111.5 146t159.5 97.5t204.5 35.5q84 0 152.5 -21.5t123 -73t81.5 -129.5q74 107 179.5 166.5t231.5 59.5q184 0 278.5 -112t94.5 -300q0 -76 -18 -186h-728q-4 -46 -4 -70q0 -132 69.5 -200t201.5 -68q153 0 313 106l45 -127 q-185 -121 -383 -121q-272 0 -364 224q-143 -224 -424 -224q-200 0 -307 106t-107 306zM354 397q0 -278 250 -278q100 0 173.5 46.5t112 124.5t56 163t17.5 180q0 272 -248 272q-81 0 -145 -30.5t-104 -80t-66 -117t-36 -136.5t-10 -144zM1147 580h563q4 36 4 65 q0 124 -54.5 198.5t-174.5 74.5q-141 0 -227.5 -96t-110.5 -242z" />
<glyph unicode="&#x178;" horiz-adv-x="1171" d="M217 1366h211l258 -659l444 659h205l-579 -823l-76 -543h-186l73 537zM512 1546q0 46 36.5 82.5t82.5 36.5q38 0 65 -26t27 -64q0 -45 -37.5 -81t-83.5 -36q-37 0 -63.5 25.5t-26.5 62.5zM895 1546q0 47 37.5 83t83.5 36q38 0 64 -26t26 -64q0 -46 -36.5 -81.5 t-82.5 -35.5q-38 0 -65 25t-27 63z" />
<glyph unicode="&#x2c6;" horiz-adv-x="733" d="M223 1255l344 201l295 -201l-92 -102l-219 162l-266 -162z" />
<glyph unicode="&#x2dc;" horiz-adv-x="733" d="M203 1235q48 80 98 112.5t113 32.5q52 0 144 -41t128 -41q77 0 119 82l84 -67q-31 -70 -88.5 -108t-120.5 -38q-52 0 -143.5 41t-126.5 41q-81 0 -127 -84z" />
<glyph unicode="&#x2000;" horiz-adv-x="879" />
<glyph unicode="&#x2001;" horiz-adv-x="1759" />
<glyph unicode="&#x2002;" horiz-adv-x="879" />
<glyph unicode="&#x2003;" horiz-adv-x="1759" />
<glyph unicode="&#x2004;" horiz-adv-x="586" />
<glyph unicode="&#x2005;" horiz-adv-x="439" />
<glyph unicode="&#x2006;" horiz-adv-x="293" />
<glyph unicode="&#x2007;" horiz-adv-x="293" />
<glyph unicode="&#x2008;" horiz-adv-x="219" />
<glyph unicode="&#x2009;" horiz-adv-x="351" />
<glyph unicode="&#x200a;" horiz-adv-x="97" />
<glyph unicode="&#x2010;" horiz-adv-x="770" d="M168 449l25 165h557l-25 -165h-557z" />
<glyph unicode="&#x2011;" horiz-adv-x="770" d="M168 449l25 165h557l-25 -165h-557z" />
<glyph unicode="&#x2012;" horiz-adv-x="770" d="M168 449l25 165h557l-25 -165h-557z" />
<glyph unicode="&#x2013;" horiz-adv-x="1224" d="M164 463l20 139h1024l-20 -139h-1024z" />
<glyph unicode="&#x2014;" horiz-adv-x="1785" d="M164 465l20 135h1585l-20 -135h-1585z" />
<glyph unicode="&#x2018;" horiz-adv-x="440" d="M180 1006l234 428h129l-144 -428h-219z" />
<glyph unicode="&#x2019;" horiz-adv-x="440" d="M240 1006l143 428h219l-235 -428h-127z" />
<glyph unicode="&#x201a;" horiz-adv-x="440" d="M53 -313l144 428h219l-236 -428h-127z" />
<glyph unicode="&#x201c;" horiz-adv-x="825" d="M180 1006l236 428h127l-144 -428h-219zM567 1006l234 428h127l-144 -428h-217z" />
<glyph unicode="&#x201d;" horiz-adv-x="825" d="M240 1006l143 428h219l-235 -428h-127zM625 1006l143 428h219l-235 -428h-127z" />
<glyph unicode="&#x201e;" horiz-adv-x="825" d="M53 -315l144 430h219l-236 -430h-127zM438 -315l144 430h219l-236 -430h-127z" />
<glyph unicode="&#x2022;" horiz-adv-x="1067" d="M219 674q0 130 91.5 221.5t221.5 91.5q132 0 224 -91t92 -222t-92 -222.5t-224 -91.5q-130 0 -221.5 91.5t-91.5 222.5z" />
<glyph unicode="&#x2026;" horiz-adv-x="1435" d="M106 70q0 57 39.5 92t98.5 35q46 0 77 -24t31 -69q0 -56 -40.5 -90t-98.5 -34q-45 0 -76 23.5t-31 66.5zM606 70q0 57 39.5 92t97.5 35q46 0 77.5 -24t31.5 -69q0 -56 -40 -90t-97 -34q-46 0 -77.5 22.5t-31.5 67.5zM1108 70q0 58 39 92.5t98 34.5q46 0 77.5 -24 t31.5 -69q0 -56 -41.5 -90t-98.5 -34q-44 0 -75 23.5t-31 66.5z" />
<glyph unicode="&#x202f;" horiz-adv-x="351" />
<glyph unicode="&#x2039;" horiz-adv-x="538" d="M127 627l342 401l113 -67l-295 -336l202 -330l-133 -70z" />
<glyph unicode="&#x203a;" horiz-adv-x="538" d="M133 295l291 330l-199 336l133 67l230 -401l-342 -402z" />
<glyph unicode="&#x205f;" horiz-adv-x="439" />
<glyph unicode="&#x20ac;" d="M109 477l18 109h143q7 115 27 190h-145l16 109h151q26 94 55.5 166.5t75 138t102 108t136 67t178.5 24.5q128 0 221 -50t173 -155l-127 -111q-52 84 -119.5 124t-163.5 40q-68 0 -121 -18t-88 -46.5t-63 -76.5t-44.5 -95.5t-33.5 -115.5h544l-14 -109h-549 q-15 -78 -26 -190h549l-17 -109h-541v-39q0 -56 6 -99.5t22 -84.5t43 -68t71 -43t104 -16q111 0 194 49.5t165 145.5l88 -113q-107 -114 -219.5 -174t-253.5 -60q-99 0 -171 24.5t-116.5 66.5t-71 107.5t-36 137t-9.5 166.5h-153z" />
<glyph unicode="&#x2122;" horiz-adv-x="1306" d="M285 1343l12 91h430l-12 -91h-162l-55 -389h-107l55 389h-161zM770 954l68 480h92l139 -252l207 252h94l-67 -480h-103l43 299l-199 -233l-131 233l-43 -299h-100z" />
<glyph unicode="&#xe000;" horiz-adv-x="1024" d="M0 0v1024h1024v-1024h-1024z" />
</font>
</defs>
</svg>
